<?xml version="1.0" encoding="utf-8"?>
<!-- Generator: Adobe Illustrator 27.2.0, SVG Export Plug-In . SVG Version: 6.00 Build 0)  -->
<svg version="1.1" id="Capa_1" xmlns="http://www.w3.org/2000/svg" xmlns:xlink="http://www.w3.org/1999/xlink" x="0px" y="0px"
	 viewBox="0 0 497.68 468.25" style="enable-background:new 0 0 497.68 468.25;" xml:space="preserve">
<style type="text/css">
	.st0{fill:none;}
	.st1{fill:#FFFFFF;}
	.st2{fill:none;stroke:#000000;stroke-miterlimit:10;}
	.st3{font-family:'MyriadPro-Regular';}
	.st4{font-size:72px;}
</style>
<g>
	<g>
		<path d="M285.98,446.28c-0.62-0.16-1.13-0.27-1.62-0.44c-5.79-1.9-11.58-3.82-17.37-5.73c-5.55-1.82-11.1-3.64-16.64-5.45
			c-4.49-1.47-8.97-2.93-13.46-4.4c-9.79-3.2-19.57-6.41-29.36-9.61c-10.41-3.4-20.82-6.8-31.23-10.21
			c-6.86-2.25-13.7-4.54-20.56-6.79c-5.61-1.84-11.23-3.64-16.84-5.47c-8.41-2.75-16.82-5.51-25.24-8.27
			c-9.54-3.12-19.08-6.22-28.62-9.34c-10.47-3.43-20.94-6.88-31.4-10.31c-7.73-2.54-15.45-5.07-23.18-7.6
			c-0.68-0.22-1.39-0.37-2.08-0.59c-1.73-0.54-2.23-1.81-1.26-3.34c1.3-2.05,2.67-4.06,4-6.09c8.15-12.46,16.3-24.93,24.45-37.4
			c10.27-15.7,20.55-31.4,30.82-47.1c9.02-13.78,18.03-27.56,27.05-41.34c11.61-17.73,23.22-35.45,34.83-53.18
			c5.57-8.51,11.12-17.03,16.69-25.54c11.67-17.84,23.35-35.69,35.02-53.53c7.65-11.69,15.29-23.39,22.95-35.09
			c7.3-11.14,14.6-22.28,21.9-33.42c0.22-0.33,0.42-0.67,0.67-0.97c0.84-0.99,1.74-1.11,2.75-0.36c0.37,0.27,0.73,0.58,1.01,0.93
			c2.84,3.44,5.63,6.92,8.48,10.34c14.07,16.89,28.15,33.76,42.23,50.65c13.7,16.43,27.4,32.86,41.1,49.28
			c11.05,13.25,22.11,26.5,33.17,39.75c11.05,13.25,22.1,26.51,33.15,39.76c8.15,9.77,16.32,19.54,24.47,29.32
			c8.28,9.93,16.54,19.86,24.82,29.79c7.61,9.12,15.22,18.23,22.83,27.35c0.34,0.4,0.68,0.81,0.96,1.24
			c0.52,0.79,0.52,1.45-0.07,2.16c-0.37,0.45-0.79,0.88-1.27,1.22c-2.77,1.99-5.58,3.92-8.35,5.91
			c-11.69,8.46-23.38,16.94-35.06,25.42c-10.94,7.94-21.87,15.89-32.8,23.83c-9.61,6.98-19.23,13.93-28.85,20.91
			c-13.7,9.94-27.4,19.89-41.1,29.83c-13.59,9.86-27.19,19.72-40.79,29.59c-1.65,1.19-3.27,2.42-4.93,3.6
			C286.89,445.89,286.4,446.07,285.98,446.28z M283.33,441.43c0.45-0.68,0.21-1.28,0.16-1.84c-0.44-4.97-0.91-9.93-1.37-14.9
			c-0.48-5.29-0.96-10.59-1.44-15.88c-0.34-3.79-0.68-7.58-1.02-11.37c-0.3-3.33-0.58-6.67-0.89-10
			c-0.48-5.23-0.99-10.45-1.46-15.68c-0.33-3.59-0.6-7.19-0.92-10.79c-0.51-5.62-1.05-11.24-1.56-16.86
			c-0.31-3.4-0.59-6.8-0.91-10.2c-0.55-5.88-1.11-11.76-1.66-17.64c-0.48-5.16-0.94-10.33-1.41-15.49
			c-0.45-4.97-0.91-9.93-1.36-14.9c-0.49-5.42-0.96-10.85-1.47-16.27c-0.16-1.69-0.25-3.38-0.65-5.06c-0.31-1.31-0.11-2.73-0.21-4.1
			c-0.18-2.55-0.39-5.1-0.63-7.65c-0.5-5.42-1.02-10.84-1.52-16.27c-0.32-3.53-0.61-7.06-0.93-10.59
			c-0.56-6.01-1.13-12.02-1.69-18.03c-0.32-3.4-0.61-6.8-0.92-10.2c-0.49-5.36-0.99-10.72-1.48-16.07
			c-0.31-3.46-0.6-6.93-0.91-10.39c-0.5-5.49-1.01-10.98-1.51-16.46c-0.3-3.33-0.57-6.67-0.88-10c-0.51-5.55-1.04-11.11-1.55-16.66
			c-0.32-3.46-0.6-6.93-0.93-10.39c-0.55-5.88-1.12-11.76-1.66-17.64c-0.47-5.1-0.92-10.19-1.39-15.29c-0.45-4.9-0.88-9.8-1.36-14.7
			c-0.61-6.27-1.25-12.53-1.87-18.79c-0.37-3.72-0.73-7.44-1.08-11.16c-0.24-2.48-0.46-4.96-0.72-7.44
			c-0.03-0.28-0.21-0.54-0.4-1.01c-0.45,0.58-0.79,0.97-1.07,1.39c-5.07,7.74-10.14,15.48-15.21,23.22
			c-9.3,14.22-18.61,28.44-27.91,42.66c-8.44,12.9-16.89,25.8-25.33,38.7c-10.74,16.41-21.49,32.83-32.23,49.24
			c-9.38,14.33-18.75,28.66-28.12,42.99c-11.42,17.46-22.84,34.92-34.26,52.38c-8.83,13.51-17.67,27.01-26.5,40.52
			c-6,9.17-11.98,18.35-18.02,27.49c-1.7,2.57-3.2,5.26-4.79,7.9c-0.1,0.16-0.11,0.36-0.17,0.6c0.21,0.16,0.41,0.33,0.62,0.46
			c1.35,0.84,2.87,1.26,4.37,1.75c5.74,1.85,11.49,3.69,17.22,5.56c8.23,2.69,16.44,5.41,24.67,8.11
			c6.86,2.25,13.72,4.48,20.57,6.73c8.54,2.8,17.08,5.6,25.62,8.39c5.3,1.73,10.61,3.42,15.9,5.16c6.86,2.25,13.7,4.55,20.55,6.8
			c8.1,2.66,16.21,5.29,24.32,7.94c8.41,2.75,16.82,5.52,25.24,8.26c5.48,1.79,10.98,3.55,16.46,5.34c8.6,2.82,17.19,5.66,25.8,8.49
			c5.05,1.66,10.11,3.28,15.15,4.93c4.36,1.43,8.72,2.87,13.08,4.3C282.25,441.18,282.82,441.3,283.33,441.43z M475.78,304
			c-0.66-1.46-1.4-2.52-2.25-3.53c-6.73-8.06-13.45-16.13-20.17-24.19c-8.91-10.68-17.83-21.36-26.74-32.04
			c-5.3-6.35-10.59-12.7-15.89-19.05c-7.86-9.43-15.7-18.86-23.56-28.28c-9.37-11.24-18.76-22.46-28.14-33.69
			c-7.19-8.61-14.37-17.23-21.56-25.85c-8.74-10.48-17.5-20.95-26.24-31.43c-9.21-11.03-18.41-22.07-27.61-33.1
			c-8.07-9.68-16.13-19.35-24.2-29.03c-2.61-3.12-5.21-6.25-7.83-9.36c-0.32-0.38-0.55-0.91-1.26-0.94
			c-0.01,0.29-0.06,0.54-0.03,0.78c0.48,5.16,0.98,10.32,1.45,15.48c0.74,8.04,1.45,16.08,2.18,24.12c0.06,0.65,0.14,1.31,0.2,1.96
			c0.5,5.42,1,10.85,1.5,16.27c0.46,5.03,0.91,10.06,1.36,15.1c0.35,3.86,0.7,7.71,1.05,11.57c0.45,4.97,0.89,9.93,1.34,14.9
			c0.46,5.1,0.94,10.19,1.4,15.29c0.59,6.6,1.15,13.21,1.76,19.81c0.94,10.13,1.92,20.25,2.85,30.38c0.61,6.66,1.16,13.34,1.77,20
			c0.6,6.6,1.24,13.2,1.84,19.8c0.6,6.6,1.15,13.2,1.76,19.8c0.14,1.56,0.24,3.13,0.68,4.66c0.27,0.93,0.37,1.93,0.14,2.92
			c-0.09,0.37-0.04,0.78-0.01,1.17c0.28,3.27,0.57,6.54,0.87,9.81c0.54,5.82,1.1,11.63,1.64,17.45c0.49,5.23,0.95,10.46,1.43,15.68
			c0.34,3.79,0.68,7.58,1.02,11.37c0.3,3.33,0.58,6.67,0.88,10c0.5,5.49,1.01,10.98,1.51,16.46c0.3,3.33,0.57,6.67,0.87,10
			c0.51,5.55,1.04,11.11,1.55,16.66c0.32,3.46,0.6,6.93,0.93,10.39c0.55,5.88,1.11,11.76,1.66,17.64c0.47,5.03,0.91,10.06,1.37,15.1
			c0.49,5.49,0.99,10.98,1.48,16.47c0.15,1.63,0.27,3.27,0.45,4.9c0.04,0.34,0.25,0.66,0.43,1.13c0.67-0.46,1.22-0.8,1.74-1.18
			c10.52-7.63,21.03-15.26,31.55-22.89c11.05-8.01,22.1-16.02,33.15-24.03c14.08-10.21,28.15-20.41,42.22-30.62
			c11.2-8.13,22.4-16.28,33.6-24.41c12.37-8.98,24.76-17.94,37.12-26.93C469.97,308.43,472.82,306.22,475.78,304z"/>
		<path class="st0" d="M283.33,441.43c-0.52-0.13-1.08-0.25-1.63-0.43c-4.36-1.43-8.72-2.87-13.08-4.3
			c-5.05-1.65-10.11-3.28-15.15-4.93c-8.6-2.82-17.19-5.67-25.8-8.49c-5.48-1.8-10.98-3.55-16.46-5.34
			c-8.41-2.75-16.82-5.51-25.24-8.26c-8.1-2.65-16.22-5.28-24.32-7.94c-6.86-2.25-13.7-4.55-20.55-6.8
			c-5.29-1.74-10.6-3.43-15.9-5.16c-8.54-2.79-17.08-5.59-25.62-8.39c-6.86-2.24-13.72-4.48-20.57-6.73
			c-8.22-2.7-16.44-5.42-24.67-8.11c-5.73-1.87-11.48-3.71-17.22-5.56c-1.5-0.48-3.02-0.91-4.37-1.75c-0.22-0.13-0.41-0.3-0.62-0.46
			c0.07-0.24,0.08-0.45,0.17-0.6c1.6-2.63,3.09-5.32,4.79-7.9c6.04-9.14,12.02-18.32,18.02-27.49c8.84-13.51,17.67-27.01,26.5-40.52
			c11.42-17.46,22.84-34.92,34.26-52.38c9.37-14.33,18.75-28.66,28.12-42.99c10.74-16.42,21.48-32.83,32.23-49.24
			c8.44-12.9,16.89-25.8,25.33-38.7c9.3-14.22,18.61-28.44,27.91-42.66c5.07-7.74,10.13-15.48,15.21-23.22
			c0.28-0.43,0.62-0.81,1.07-1.39c0.19,0.47,0.38,0.73,0.4,1.01c0.25,2.48,0.48,4.96,0.72,7.44c0.36,3.72,0.72,7.44,1.08,11.16
			c0.62,6.26,1.26,12.53,1.87,18.79c0.47,4.9,0.91,9.8,1.36,14.7c0.47,5.1,0.92,10.19,1.39,15.29c0.55,5.88,1.12,11.76,1.66,17.64
			c0.32,3.46,0.61,6.93,0.93,10.39c0.51,5.55,1.04,11.11,1.55,16.66c0.31,3.33,0.57,6.67,0.88,10c0.5,5.49,1.01,10.98,1.51,16.46
			c0.31,3.46,0.6,6.93,0.91,10.39c0.49,5.36,0.99,10.72,1.48,16.07c0.31,3.4,0.6,6.8,0.92,10.2c0.56,6.01,1.14,12.02,1.69,18.03
			c0.33,3.53,0.61,7.06,0.93,10.59c0.5,5.42,1.02,10.84,1.52,16.27c0.23,2.55,0.45,5.1,0.63,7.65c0.1,1.37-0.1,2.79,0.21,4.1
			c0.4,1.68,0.49,3.37,0.65,5.06c0.51,5.42,0.98,10.85,1.47,16.27c0.45,4.97,0.91,9.93,1.36,14.9c0.47,5.16,0.93,10.33,1.41,15.49
			c0.55,5.88,1.11,11.76,1.66,17.64c0.32,3.4,0.6,6.8,0.91,10.2c0.52,5.62,1.06,11.24,1.56,16.86c0.33,3.59,0.6,7.19,0.92,10.79
			c0.47,5.23,0.98,10.45,1.46,15.68c0.31,3.33,0.59,6.67,0.89,10c0.34,3.79,0.68,7.58,1.02,11.37c0.48,5.29,0.96,10.59,1.44,15.88
			c0.45,4.97,0.92,9.93,1.37,14.9C283.55,440.16,283.78,440.75,283.33,441.43z"/>
		<path class="st0" d="M475.78,304c-2.95,2.22-5.8,4.42-8.72,6.54c-12.36,8.99-24.75,17.95-37.12,26.93
			c-11.2,8.13-22.4,16.28-33.6,24.41c-14.07,10.21-28.15,20.42-42.22,30.62c-11.05,8.01-22.1,16.02-33.15,24.03
			c-10.52,7.63-21.03,15.26-31.55,22.89c-0.52,0.38-1.07,0.73-1.74,1.18c-0.19-0.47-0.4-0.79-0.43-1.13
			c-0.18-1.63-0.3-3.27-0.45-4.9c-0.49-5.49-0.98-10.98-1.48-16.47c-0.45-5.03-0.9-10.07-1.37-15.1
			c-0.54-5.88-1.11-11.76-1.66-17.64c-0.32-3.46-0.61-6.93-0.93-10.39c-0.51-5.55-1.04-11.11-1.55-16.66
			c-0.31-3.33-0.57-6.67-0.87-10c-0.5-5.49-1.01-10.98-1.51-16.46c-0.3-3.33-0.59-6.67-0.88-10c-0.34-3.79-0.68-7.58-1.02-11.37
			c-0.47-5.23-0.94-10.46-1.43-15.68c-0.54-5.82-1.1-11.63-1.64-17.45c-0.3-3.27-0.59-6.54-0.87-9.81c-0.03-0.39-0.08-0.8,0.01-1.17
			c0.23-1,0.13-2-0.14-2.92c-0.44-1.53-0.54-3.1-0.68-4.66c-0.61-6.6-1.16-13.2-1.76-19.8c-0.6-6.6-1.24-13.2-1.84-19.8
			c-0.6-6.67-1.15-13.34-1.77-20c-0.93-10.13-1.92-20.25-2.85-30.38c-0.61-6.6-1.17-13.2-1.76-19.81c-0.46-5.1-0.94-10.19-1.4-15.29
			c-0.45-4.97-0.9-9.93-1.34-14.9c-0.35-3.86-0.7-7.71-1.05-11.57c-0.46-5.03-0.9-10.06-1.36-15.1c-0.49-5.42-1-10.85-1.5-16.27
			c-0.06-0.65-0.14-1.31-0.2-1.96c-0.73-8.04-1.44-16.08-2.18-24.12c-0.47-5.16-0.97-10.32-1.45-15.48
			c-0.02-0.24,0.02-0.49,0.03-0.78c0.71,0.03,0.94,0.56,1.26,0.94c2.62,3.11,5.23,6.23,7.83,9.36c8.07,9.67,16.14,19.35,24.2,29.03
			c9.2,11.04,18.4,22.07,27.61,33.1c8.74,10.48,17.5,20.95,26.24,31.43c7.19,8.61,14.37,17.24,21.56,25.85
			c9.38,11.23,18.76,22.46,28.14,33.69c7.86,9.42,15.71,18.85,23.56,28.28c5.29,6.35,10.59,12.7,15.89,19.05
			c8.91,10.68,17.83,21.36,26.74,32.04c6.73,8.06,13.44,16.13,20.17,24.19C474.37,301.49,475.12,302.54,475.78,304z"/>
	</g>
	<path class="st1" d="M213.14,32.97"/>
	<line class="st2" x1="232.64" y1="281.39" x2="32.13" y2="358.79"/>
	<line class="st2" x1="232.64" y1="281.39" x2="480.43" y2="305.29"/>
	<line class="st2" x1="232.64" y1="281.39" x2="245.71" y2="24.25"/>
</g>
<rect x="287.72" y="121.4" transform="matrix(0.931 -0.3651 0.3651 0.931 -49.1075 135.4471)" class="st0" width="91.82" height="152.38"/>
<text transform="matrix(1 0 0 1 303.8556 247.4152)" class="st3 st4">5</text>
</svg>
