<?xml version="1.0" encoding="utf-8"?>
<!-- Generator: Adobe Illustrator 27.2.0, SVG Export Plug-In . SVG Version: 6.00 Build 0)  -->
<svg version="1.1" id="Capa_1" xmlns="http://www.w3.org/2000/svg" xmlns:xlink="http://www.w3.org/1999/xlink" x="0px" y="0px"
	 viewBox="0 0 32 32" style="enable-background:new 0 0 32 32;" xml:space="preserve">
<style type="text/css">
	.st0{fill:#8E8E8E;}
</style>
<path class="st0" d="M12,1L0,13l12,12l12-12L12,1z M12,3.8l9.2,9.2L12,22.2L2.8,13L12,3.8z M12,8c-0.55,0-1,0.45-1,1s0.45,1,1,1
	s1-0.45,1-1S12.55,8,12,8z M8,12c-0.55,0-1,0.45-1,1s0.45,1,1,1s1-0.45,1-1S8.55,12,8,12z M12,12c-0.55,0-1,0.45-1,1s0.45,1,1,1
	s1-0.45,1-1S12.55,12,12,12z M16,12c-0.55,0-1,0.45-1,1s0.45,1,1,1c0.55,0,1-0.45,1-1S16.55,12,16,12z M26.8,13l-2,2H30v12H18v-5.2
	l-2,2V29h16V13H26.8z M12,16c-0.55,0-1,0.45-1,1s0.45,1,1,1s1-0.45,1-1S12.55,16,12,16z M24,20c-0.55,0-1,0.45-1,1s0.45,1,1,1
	s1-0.45,1-1S24.55,20,24,20z"/>
</svg>
