<?xml version="1.0" encoding="utf-8"?>
<!-- Generator: Adobe Illustrator 27.2.0, SVG Export Plug-In . SVG Version: 6.00 Build 0)  -->
<svg version="1.1" id="Capa_1" xmlns="http://www.w3.org/2000/svg" xmlns:xlink="http://www.w3.org/1999/xlink" x="0px" y="0px"
	 viewBox="0 0 25.34 27.93" style="enable-background:new 0 0 25.34 27.93;" xml:space="preserve">
<style type="text/css">
	.st0{fill:none;}
	.st1{font-family:'MyriadPro-Regular';}
	.st2{font-size:12px;}
</style>
<path d="M13.1,0.86c-0.16-0.06-0.33-0.06-0.49,0L1.52,4.9L0.86,5.15v15.28l0.53,0.28l11,6l0.47,0.25l0.47-0.25l11-6l0.53-0.28V5.15
	L24.2,4.9L13.1,0.86z M12.86,1.49L23.42,5.4l-10.56,4.79L1.99,5.48L12.86,1.49z M1.49,5.9c3.64,1.72,7.29,3.44,10.93,5.15
	c0.07,4.98,0.15,9.96,0.22,14.95c-3.74-1.97-7.48-3.95-11.21-5.92C1.45,15.35,1.47,10.63,1.49,5.9z M24.27,5.67
	c-0.01,4.79-0.02,9.57-0.03,14.36c-3.63,1.92-7.26,3.85-10.89,5.77c-0.06-4.93-0.11-9.87-0.17-14.8
	C16.88,9.23,20.58,7.45,24.27,5.67z"/>
<rect x="16.28" y="10.79" class="st0" width="8.99" height="8.99"/>
<text transform="matrix(1 0 0 1 16.2755 19.3098)" class="st1 st2">6</text>
</svg>
