<?xml version="1.0" encoding="utf-8"?>
<!-- Generator: Adobe Illustrator 27.3.1, SVG Export Plug-In . SVG Version: 6.00 Build 0)  -->
<svg version="1.1" xmlns="http://www.w3.org/2000/svg" xmlns:xlink="http://www.w3.org/1999/xlink" x="0px" y="0px"
	 viewBox="0 0 1039 656" style="enable-background:new 0 0 1039 656;" xml:space="preserve">
<style type="text/css">
	.st0{fill:#F9F9F9;}
	.st1{fill:url(#SVGID_1_);}
	.st2{fill:#FFFFFF;stroke:#000000;stroke-miterlimit:10;}
	.st3{fill:none;stroke:#000000;stroke-miterlimit:10;}
	.st4{fill:none;}
	.st5{font-family:'Helvetica';}
	.st6{font-size:48px;}
	.st7{font-size:18px;}
</style>
<g id="Capa_1">
	<g>
		<rect x="12.5" y="12.5" class="st0" width="1015" height="632"/>
		<path d="M1027,13v631H13V13H1027 M1028,12H12v633h1016V12L1028,12z"/>
	</g>
	<g>
		<linearGradient id="SVGID_1_" gradientUnits="userSpaceOnUse" x1="122.5" y1="329" x2="783.5" y2="329">
			<stop  offset="0" style="stop-color:#000000"/>
			<stop  offset="0.7221" style="stop-color:#FFFFFF"/>
		</linearGradient>
		<ellipse class="st1" cx="453" cy="329" rx="330.5" ry="161.5"/>
		<path d="M453,168c181.96,0,330,72.22,330,161S634.96,490,453,490s-330-72.22-330-161S271.04,168,453,168 M453,167
			c-182.81,0-331,72.53-331,162s148.19,162,331,162s331-72.53,331-162S635.81,167,453,167L453,167z"/>
	</g>
</g>
<g id="Capa_2">
	<line class="st2" x1="301" y1="12" x2="301" y2="645"/>
	<line class="st2" x1="11.5" y1="402.5" x2="647.5" y2="11.5"/>
	<line class="st2" x1="301" y1="451" x2="493" y2="454"/>
	<line class="st3" x1="492.5" y1="453.5" x2="705.5" y2="11.5"/>
	<line class="st3" x1="492.5" y1="453.5" x2="620.5" y2="644.5"/>
	<line class="st3" x1="740.5" y1="335.5" x2="804.5" y2="11.5"/>
	<line class="st3" x1="740.5" y1="335.5" x2="855.5" y2="420.5"/>
	<line class="st3" x1="793.5" y1="374.5" x2="949.5" y2="11.5"/>
	<line class="st3" x1="855.5" y1="420.5" x2="858.5" y2="645.5"/>
	<line class="st3" x1="923.5" y1="71.5" x2="1027.5" y2="71.5"/>
</g>
<g id="Capa_3">
	<rect x="121.84" y="107.18" class="st4" width="55.02" height="45.48"/>
	<text transform="matrix(1 0 0 1 121.8439 141.6925)"><tspan x="0" y="0" class="st5 st6">A</tspan><tspan x="32.02" y="0" class="st5 st7">4</tspan></text>
	<rect x="121.84" y="510.18" class="st4" width="55.02" height="45.48"/>
	<text transform="matrix(1 0 0 1 121.8441 544.6926)"><tspan x="0" y="0" class="st5 st6">A</tspan><tspan x="32.02" y="0" class="st5 st7">3</tspan></text>
	<rect x="376.84" y="63.18" class="st4" width="55.02" height="45.48"/>
	<text transform="matrix(1 0 0 1 376.8441 97.6927)"><tspan x="0" y="0" class="st5 st6">A</tspan><tspan x="32.02" y="0" class="st5 st7">5</tspan></text>
	<rect x="556.84" y="94.18" class="st4" width="55.02" height="45.48"/>
	<text transform="matrix(1 0 0 1 556.8438 128.6923)"><tspan x="0" y="0" class="st5 st6">A</tspan><tspan x="32.02" y="0" class="st5 st7">6</tspan></text>
	<rect x="399.84" y="549.18" class="st4" width="55.02" height="45.48"/>
	<text transform="matrix(1 0 0 1 399.8438 583.6928)"><tspan x="0" y="0" class="st5 st6">A</tspan><tspan x="32.02" y="0" class="st5 st7">2</tspan></text>
	<rect x="712.84" y="526.18" class="st4" width="55.02" height="45.48"/>
	<text transform="matrix(1 0 0 1 712.844 560.6929)"><tspan x="0" y="0" class="st5 st6">A</tspan><tspan x="32.02" y="0" class="st5 st7">1</tspan></text>
	<rect x="929.23" y="329.01" class="st4" width="55.02" height="45.48"/>
	<text transform="matrix(1 0 0 1 929.2318 363.5205)"><tspan x="0" y="0" class="st5 st6">A</tspan><tspan x="32.02" y="0" class="st5 st7">N</tspan></text>
	<rect x="829.74" y="71.01" class="st4" width="55.02" height="45.48"/>
	<text transform="matrix(1 0 0 1 829.7377 105.5209)"><tspan x="0" y="0" class="st5 st6">A</tspan><tspan x="32.02" y="0" class="st5 st7">P</tspan></text>
	<rect x="963.74" y="18" class="st4" width="55.02" height="45"/>
	<text transform="matrix(1 0 0 1 963.7372 52.5117)" class="st5 st6">...</text>
</g>
</svg>
