<?xml version="1.0" encoding="utf-8"?>
<!-- Generator: Adobe Illustrator 27.3.1, SVG Export Plug-In . SVG Version: 6.00 Build 0)  -->
<svg version="1.1" id="Capa_1" xmlns="http://www.w3.org/2000/svg" xmlns:xlink="http://www.w3.org/1999/xlink" x="0px" y="0px"
	 viewBox="0 0 874.74 1194.54" style="enable-background:new 0 0 874.74 1194.54;" xml:space="preserve">
<style type="text/css">
	.st0{fill:#FFA77B;}
	.st1{fill:#F6F7F7;}
	.st2{fill:#CFF1FB;}
	.st3{fill:#F98770;}
	.st4{fill:#746887;}
	.st5{clip-path:url(#SVGID_00000135691720277974128130000002646233944912043921_);}
	.st6{clip-path:url(#SVGID_00000062179955158331818140000005214471353044401064_);}
	.st7{clip-path:url(#SVGID_00000041993118890641721220000012008734499129983387_);}
	.st8{clip-path:url(#SVGID_00000034796791954709847220000009873007838123440032_);}
	.st9{fill:#F4B2B0;}
	.st10{clip-path:url(#SVGID_00000180338739995436987780000007776333420626731139_);}
	.st11{clip-path:url(#SVGID_00000177456163484832824280000006071128130486481595_);}
	.st12{fill:#4DC6F4;}
	.st13{clip-path:url(#SVGID_00000065793729816709932400000005580082681125990805_);}
	.st14{clip-path:url(#SVGID_00000166670641185667330540000015829723575305315254_);}
	.st15{fill-rule:evenodd;clip-rule:evenodd;fill:#746887;}
	.st16{clip-path:url(#SVGID_00000093869583759622367440000018344368056327065731_);}
</style>
<path class="st0" d="M485.39,353.29l-27.55-46.73l-30.66-51.98c-2.62-4.46-9.08-4.46-11.71,0l-12.83,21.77l-25.36,43l-39.35,66.72
	c-2.67,4.53,0.59,10.23,5.84,10.23h155.08c5.26,0,8.54-5.7,5.86-10.23L485.39,353.29"/>
<path class="st1" d="M426.2,296.71h-9.74c-2.9,0-5.15,2.5-4.86,5.38l4.88,47.5c0.26,2.49,2.35,4.39,4.85,4.39
	c2.51,0,4.6-1.9,4.86-4.39l4.88-47.5C431.35,299.21,429.09,296.71,426.2,296.71"/>
<path class="st1" d="M421.32,364.63c-4.05,0-7.34,3.29-7.34,7.34c0,4.06,3.29,7.34,7.34,7.34c4.06,0,7.34-3.29,7.34-7.34
	C428.66,367.92,425.38,364.63,421.32,364.63"/>
<path class="st2" d="M576.97,174.49H373.21c-0.64,0-1.24,0.09-1.81,0.25c-1.45,0.39-2.69,1.24-3.58,2.4
	c-0.86,1.13-1.4,2.58-1.4,4.14v131.26c0,1.56,0.52,2.99,1.4,4.12c1.22,1.63,3.19,2.67,5.39,2.67h4.07l25.36-43v-61.1
	c0-1.56,0.54-3.01,1.4-4.14c0.2-0.25,0.41-0.48,0.64-0.7c0.09-0.09,0.18-0.18,0.27-0.23c0.23-0.24,0.5-0.43,0.77-0.61
	c0.05-0.02,0.07-0.04,0.11-0.07c0.14-0.09,0.27-0.18,0.41-0.24c0.05-0.03,0.09-0.05,0.14-0.07c0.27-0.14,0.54-0.24,0.81-0.34
	c0.7-0.25,1.45-0.39,2.24-0.39h174.33v-27.16c0-1.49-0.5-2.9-1.31-4.01C581.22,175.58,579.23,174.49,576.97,174.49"/>
<path class="st0" d="M547.53,145.08H343.77c-2.2,0-4.15,1.04-5.39,2.65c-0.86,1.13-1.4,2.58-1.4,4.14v131.27
	c0,1.56,0.52,2.98,1.4,4.11c1.22,1.63,3.19,2.67,5.39,2.67h22.64V181.29c0-1.56,0.54-3.01,1.4-4.14c1.24-1.61,3.19-2.65,5.39-2.65
	h181.12v-22.64c0-1.49-0.5-2.9-1.31-4.01C551.79,146.16,549.8,145.08,547.53,145.08"/>
<path class="st1" d="M613.19,208.44H409.43c-3.76,0-6.79,3.03-6.79,6.79v61.1l12.83-21.77c2.63-4.46,9.08-4.46,11.71,0l30.66,51.98
	l27.55,46.73h127.8c0.22,0,0.47-0.03,0.7-0.05c0.14,0,0.27-0.02,0.41-0.05c0.16-0.02,0.32-0.07,0.47-0.11
	c0.14-0.03,0.3-0.05,0.43-0.11c0.22-0.07,0.43-0.14,0.63-0.23c1.14-0.47,2.13-1.24,2.83-2.24c0.81-1.11,1.31-2.51,1.31-4.01V215.23
	C619.98,211.47,616.95,208.44,613.19,208.44"/>
<path class="st3" d="M487.33,349.89l-25.09-42.56l26.97-22.08l19.95,16.34c1.25,1.03,3.05,1.03,4.3,0.01l19.99-16.35l79.1,64.64
	H487.33z M535.6,278.23c-1.26-1.02-3.05-1.02-4.3,0l-19.99,16.35l-19.94-16.34c-1.26-1.03-3.06-1.03-4.31,0l-31.38,25.69
	c-1.3,1.06-1.63,2.91-0.78,4.35l27.55,46.73c0.61,1.04,1.72,1.67,2.93,1.67h127.8c0.3,0,0.62-0.03,0.93-0.05
	c0.23-0.02,0.46-0.04,0.64-0.07c0.26-0.04,0.51-0.09,0.76-0.16c0.21-0.04,0.51-0.11,0.85-0.24c0.3-0.09,0.57-0.19,0.79-0.29
	c1.74-0.73,3.23-1.91,4.29-3.41c1.03-1.45,0.75-3.46-0.62-4.58L535.6,278.23"/>
<path class="st4" d="M511.31,294.58l-101-82.74h202.24L511.31,294.58z M613.19,205.05H409.43c-3.18,0-6.12,1.45-8.07,3.96
	c-1.13,1.45-0.89,3.54,0.53,4.71l107.27,87.88c0.62,0.52,1.39,0.77,2.15,0.77s1.52-0.26,2.15-0.77l107.36-87.74
	c1.39-1.14,1.66-3.16,0.6-4.61C619.53,206.61,616.46,205.05,613.19,205.05"/>
<path class="st4" d="M543.11,205.05H409.43c-0.66,0-1.32,0.07-1.96,0.19l-33.38-27.35h202.24L543.11,205.05z M576.97,171.1H373.21
	c-3.18,0-6.12,1.44-8.07,3.96c-1.13,1.45-0.89,3.54,0.53,4.71l38.9,31.86c0.62,0.51,1.38,0.77,2.15,0.77c0.46,0,0.92-0.09,1.35-0.28
	c0.45-0.19,0.9-0.29,1.37-0.29h134.89c0.78,0,1.54-0.27,2.15-0.77l38.12-31.17c1.39-1.14,1.66-3.16,0.6-4.61
	C583.31,172.67,580.23,171.1,576.97,171.1"/>
<g>
	<defs>
		<rect id="SVGID_1_" x="334.75" y="141.68" width="222.67" height="36.87"/>
	</defs>
	<clipPath id="SVGID_00000137851925754996876280000001466481112453612990_">
		<use xlink:href="#SVGID_1_"  style="overflow:visible;"/>
	</clipPath>
	<g style="clip-path:url(#SVGID_00000137851925754996876280000001466481112453612990_);">
		<path class="st4" d="M519.22,171.1H373.21c-0.29,0-0.57,0.01-0.86,0.04l-27.69-22.67H546.9L519.22,171.1z M547.53,141.68H343.77
			c-3.18,0-6.12,1.44-8.07,3.96c-1.13,1.46-0.89,3.54,0.53,4.71l33.01,27.02c0.61,0.51,1.38,0.77,2.15,0.77
			c0.3,0,0.61-0.04,0.91-0.12c0.3-0.08,0.6-0.12,0.9-0.12h147.23c0.78,0,1.54-0.27,2.15-0.77l32.58-26.64
			c1.39-1.14,1.66-3.16,0.6-4.61C553.88,143.25,550.79,141.68,547.53,141.68"/>
	</g>
</g>
<g>
	<defs>
		<rect id="SVGID_00000121989577965328964600000000072533806276939173_" x="333.58" y="247.78" width="175.55" height="151.9"/>
	</defs>
	<clipPath id="SVGID_00000033343130258302890820000013092673190952501909_">
		<use xlink:href="#SVGID_00000121989577965328964600000000072533806276939173_"  style="overflow:visible;"/>
	</clipPath>
	<g style="clip-path:url(#SVGID_00000033343130258302890820000013092673190952501909_);">
		<path class="st4" d="M430.11,252.84c-1.85-3.14-5.14-5.02-8.78-5.02c-3.65,0-6.93,1.88-8.78,5.02l-77.54,131.48
			c-1.88,3.19-1.91,7.01-0.08,10.22c1.83,3.21,5.14,5.13,8.84,5.13h69.32c1.88,0,3.4-1.52,3.4-3.4s-1.52-3.4-3.4-3.4h-69.32
			c-1.78,0-2.65-1.19-2.94-1.71c-0.3-0.51-0.88-1.87,0.03-3.4l77.54-131.49c0.89-1.51,2.34-1.67,2.93-1.67
			c0.58,0,2.04,0.16,2.93,1.67l77.55,131.49c0.9,1.52,0.31,2.88,0.02,3.39c-0.3,0.52-1.18,1.72-2.96,1.72h-68.47
			c-1.88,0-3.4,1.52-3.4,3.4s1.52,3.4,3.4,3.4h68.47c3.71,0,7.02-1.93,8.86-5.14c1.83-3.21,1.81-7.03-0.07-10.21L430.11,252.84"/>
	</g>
</g>
<path class="st3" d="M431.06,302.08h0.02H431.06z M422.8,349.24c-0.08,0.76-0.71,1.33-1.48,1.33c-0.76,0-1.4-0.57-1.47-1.33
	l-4.88-47.5c-0.06-0.57,0.21-0.96,0.38-1.15c0.17-0.18,0.53-0.48,1.1-0.48h9.74c0.57,0,0.94,0.31,1.1,0.48
	c0.17,0.19,0.43,0.58,0.38,1.15L422.8,349.24z M426.2,293.31h-9.74c-2.34,0-4.58,0.99-6.15,2.73s-2.33,4.06-2.09,6.39l4.88,47.5
	c0.43,4.23,3.97,7.43,8.23,7.43s7.8-3.19,8.23-7.43l4.88-47.5v-0.01c0.24-2.32-0.52-4.65-2.09-6.39
	C430.77,294.31,428.53,293.31,426.2,293.31"/>
<path class="st3" d="M421.32,375.92c-2.18,0-3.95-1.77-3.95-3.95c0-2.18,1.77-3.95,3.95-3.95s3.95,1.77,3.95,3.95
	C425.27,374.14,423.5,375.92,421.32,375.92z M421.32,361.23c-5.92,0-10.74,4.82-10.74,10.73c0,5.92,4.82,10.74,10.74,10.74
	c5.93,0,10.74-4.82,10.74-10.74C432.07,366.05,427.25,361.23,421.32,361.23"/>
<path class="st4" d="M580.36,205.05H409.43c-1.16,0-2.29,0.2-3.32,0.56c-0.42,0.14-0.84,0.31-1.38,0.58
	c-0.24,0.11-0.48,0.26-0.73,0.43c-0.01,0.01-0.01,0.01-0.02,0.01c-0.05,0.03-0.1,0.06-0.15,0.09c-0.29,0.19-0.69,0.45-1.1,0.84
	c-0.21,0.17-0.37,0.33-0.47,0.43c-0.3,0.3-0.57,0.6-0.93,1.04c-1.35,1.78-2.09,3.98-2.09,6.2v60.18l-23.9,40.53h-2.14
	c-1.06,0-2.06-0.49-2.71-1.36c-0.45-0.58-0.68-1.28-0.68-2.04V181.29c0-0.74,0.25-1.48,0.7-2.08c0.45-0.58,1.07-1,1.8-1.19
	c0.3-0.08,0.6-0.12,0.9-0.12h203.76c1.1,0,2.09,0.5,2.74,1.4c0.43,0.57,0.66,1.28,0.66,1.99V205.05z M576.97,171.1H373.21
	c-0.92,0-1.84,0.12-2.68,0.36c-2.13,0.57-4.05,1.85-5.41,3.63c-1.35,1.78-2.09,3.97-2.09,6.19v131.26c0,2.28,0.73,4.43,2.08,6.16
	c1.9,2.53,4.93,4.03,8.11,4.03h4.07c1.2,0,2.32-0.64,2.93-1.67l25.35-43c0.31-0.52,0.47-1.11,0.47-1.72v-61.1
	c0-0.74,0.25-1.49,0.62-1.98c0.1-0.12,0.19-0.23,0.31-0.35c0.14-0.1,0.27-0.21,0.4-0.36c0.05-0.04,0.11-0.07,0.16-0.11
	c0.02-0.01,0.04-0.03,0.06-0.04c0.12-0.07,0.24-0.15,0.31-0.19c0.12-0.06,0.24-0.11,0.43-0.18c0.35-0.12,0.72-0.19,1.1-0.19h174.33
	c1.88,0,3.4-1.52,3.4-3.4v-27.16c0-2.15-0.7-4.28-1.95-5.99C583.31,172.67,580.23,171.1,576.97,171.1"/>
<g>
	<defs>
		<rect id="SVGID_00000000929464639688107320000000633550512767018368_" x="333.48" y="141.68" width="225.28" height="152.87"/>
	</defs>
	<clipPath id="SVGID_00000110434270793573176260000006540685840389790139_">
		<use xlink:href="#SVGID_00000000929464639688107320000000633550512767018368_"  style="overflow:visible;"/>
	</clipPath>
	<g style="clip-path:url(#SVGID_00000110434270793573176260000006540685840389790139_);">
		<path class="st4" d="M547.53,141.68H343.77c-3.18,0-6.12,1.44-8.09,3.99c-1.35,1.78-2.09,3.97-2.09,6.19v47.21
			c0,1.88,1.52,3.4,3.4,3.4c0.11,0,0.24-0.01,0.37-0.02c1.74-0.14,3.12-1.6,3.12-3.39c0-0.27-0.04-0.54-0.09-0.79v-46.41
			c0-0.74,0.25-1.48,0.69-2.06c0.66-0.84,1.65-1.33,2.71-1.33h203.76c1.1,0,2.09,0.51,2.74,1.4c0.43,0.57,0.66,1.28,0.66,1.99v19.24
			H373.21c-3.18,0-6.12,1.44-8.09,3.99c-1.35,1.77-2.09,3.97-2.09,6.19v105.23h-19.24c-1.06,0-2.06-0.49-2.71-1.36
			c-0.45-0.58-0.68-1.28-0.68-2.03v-65.17c0.06-0.25,0.09-0.52,0.09-0.79c0-1.77-1.36-3.22-3.09-3.38
			c-0.09-0.01-0.19-0.02-0.28-0.02c-0.95-0.01-1.82,0.31-2.48,0.95c-0.66,0.64-1.04,1.53-1.04,2.45v65.96
			c0,2.28,0.73,4.42,2.08,6.15c1.9,2.53,4.93,4.03,8.11,4.03h22.64c1.88,0,3.4-1.52,3.4-3.4V181.29c0-0.74,0.25-1.48,0.69-2.06
			c0.66-0.85,1.65-1.33,2.71-1.33h181.12c1.88,0,3.4-1.52,3.4-3.4v-22.63c0-2.15-0.7-4.28-1.95-5.99
			C553.88,143.25,550.79,141.68,547.53,141.68"/>
	</g>
</g>
<g>
	<defs>
		<rect id="SVGID_00000091728127580197126670000009466969965504763549_" x="398.75" y="203.88" width="224.72" height="153.33"/>
	</defs>
	<clipPath id="SVGID_00000110442006795265292630000013552401960615108286_">
		<use xlink:href="#SVGID_00000091728127580197126670000009466969965504763549_"  style="overflow:visible;"/>
	</clipPath>
	<g style="clip-path:url(#SVGID_00000110442006795265292630000013552401960615108286_);">
		<path class="st4" d="M613.68,349.94c-0.01,0-0.01,0.01-0.01,0.01C613.67,349.94,613.67,349.94,613.68,349.94z M613.88,349.84
			C613.88,349.84,613.88,349.84,613.88,349.84S613.88,349.84,613.88,349.84z M613.89,349.84
			C613.89,349.84,613.89,349.84,613.89,349.84C613.89,349.84,613.89,349.84,613.89,349.84z M613.19,205.05H409.43
			c-5.62,0-10.19,4.57-10.19,10.19v61.1c0,1.53,1.03,2.87,2.5,3.28c1.48,0.41,3.05-0.23,3.82-1.55l12.84-21.77
			c0.89-1.51,2.34-1.67,2.93-1.67c0.58,0,2.04,0.16,2.93,1.67l58.21,98.72c0.61,1.03,1.72,1.67,2.93,1.67h127.8
			c0.3,0,0.62-0.03,0.93-0.05c0.23-0.02,0.46-0.04,0.64-0.07c0.26-0.04,0.51-0.09,0.76-0.16c0.21-0.04,0.51-0.11,0.85-0.24
			c0.3-0.09,0.57-0.19,0.79-0.29c1.75-0.73,3.23-1.91,4.26-3.36c1.27-1.73,1.97-3.87,1.97-6.02v-61.82c0-1.88-1.52-3.4-3.4-3.4
			s-3.4,1.52-3.4,3.4v61.82c0,0.71-0.23,1.42-0.69,2.05c-0.32,0.45-0.8,0.83-1.44,1.1c-0.07,0.03-0.15,0.05-0.22,0.07
			c-0.04,0.02-0.07,0.03-0.11,0.04c-0.14,0.03-0.33,0.07-0.43,0.1c-0.05,0.01-0.1,0.01-0.15,0.02c-0.11,0.01-0.24,0.03-0.35,0.03
			H487.33l-57.22-97.05c-1.85-3.14-5.14-5.02-8.78-5.02c-3.65,0-6.93,1.88-8.78,5.02l-6.52,11.05v-48.66c0-1.88,1.52-3.4,3.4-3.4
			h203.76c1.88,0,3.4,1.52,3.4,3.4v51.49c0,1.88,1.52,3.4,3.4,3.4s3.4-1.52,3.4-3.4v-51.49
			C623.38,209.61,618.81,205.05,613.19,205.05"/>
	</g>
</g>
<path class="st9" d="M303.43,882.83h-10.16v40.65h-40.64L232.3,943.8h-81.29l-20.32-20.32H90.04v-40.65H79.88l-40.65,40.65v91.45
	h304.84v-91.45L303.43,882.83z M211.98,984.44h-40.65c-0.67,0-1.33-0.06-1.98-0.19c-0.65-0.13-1.29-0.32-1.91-0.58
	c-0.61-0.26-1.2-0.57-1.76-0.94c-0.56-0.37-1.07-0.79-1.54-1.26c-0.47-0.47-0.89-0.98-1.26-1.54c-0.38-0.56-0.69-1.14-0.94-1.76
	c-0.26-0.62-0.45-1.26-0.58-1.91c-0.13-0.66-0.19-1.32-0.19-1.98s0.06-1.33,0.19-1.98c0.13-0.65,0.32-1.29,0.58-1.9
	c0.26-0.62,0.57-1.2,0.94-1.76c0.37-0.55,0.79-1.07,1.26-1.54c0.47-0.47,0.98-0.9,1.54-1.27c0.55-0.37,1.14-0.68,1.76-0.94
	c0.62-0.26,1.26-0.45,1.91-0.58c0.66-0.13,1.32-0.2,1.98-0.2h40.65c0.67,0,1.33,0.07,1.98,0.2c0.66,0.13,1.29,0.32,1.91,0.58
	c0.62,0.26,1.2,0.57,1.76,0.94c0.55,0.37,1.07,0.79,1.54,1.27c0.47,0.47,0.9,0.98,1.27,1.54c0.37,0.56,0.68,1.14,0.94,1.76
	c0.26,0.61,0.45,1.25,0.58,1.9c0.13,0.66,0.2,1.32,0.2,1.98s-0.07,1.33-0.2,1.98c-0.13,0.65-0.32,1.29-0.58,1.91
	c-0.26,0.61-0.57,1.2-0.94,1.76c-0.37,0.56-0.79,1.07-1.27,1.54c-0.47,0.47-0.98,0.89-1.54,1.26c-0.56,0.37-1.14,0.69-1.76,0.94
	c-0.61,0.26-1.25,0.45-1.91,0.58C213.31,984.38,212.64,984.44,211.98,984.44z"/>
<g>
	<defs>
		<rect id="SVGID_00000127755968699331948480000016336224372706790019_" x="34.15" y="705" width="315" height="315"/>
	</defs>
	<clipPath id="SVGID_00000004524687522236485670000004189623037469296279_">
		<use xlink:href="#SVGID_00000127755968699331948480000016336224372706790019_"  style="overflow:visible;"/>
	</clipPath>
	<g style="clip-path:url(#SVGID_00000004524687522236485670000004189623037469296279_);">
		<path class="st0" d="M347.68,919.87l-40.65-40.65c-1-0.99-2.2-1.48-3.61-1.47h-5.08V710.09c0-0.67-0.13-1.32-0.39-1.94
			c-0.26-0.62-0.62-1.17-1.1-1.65c-0.47-0.47-1.03-0.84-1.65-1.1c-0.62-0.26-1.27-0.39-1.95-0.39h-182.9
			c-0.67,0-1.32,0.13-1.94,0.39c-0.62,0.26-1.17,0.62-1.65,1.1c-0.47,0.48-0.84,1.03-1.1,1.65c-0.26,0.62-0.39,1.27-0.39,1.94v15.24
			H90.04c-0.67,0-1.32,0.13-1.94,0.39c-0.62,0.26-1.17,0.62-1.65,1.1c-0.47,0.48-0.84,1.03-1.1,1.65c-0.26,0.62-0.39,1.27-0.39,1.94
			v147.34h-5.08c-1.41-0.01-2.61,0.48-3.61,1.47l-40.64,40.65c-0.99,0.99-1.48,2.2-1.47,3.6v91.45c0,0.67,0.12,1.32,0.39,1.94
			c0.26,0.62,0.62,1.17,1.1,1.65c0.48,0.47,1.03,0.84,1.65,1.1c0.62,0.26,1.27,0.39,1.94,0.39h304.84c0.68,0,1.32-0.12,1.95-0.39
			c0.62-0.26,1.17-0.62,1.65-1.1c0.47-0.48,0.84-1.03,1.1-1.65c0.26-0.62,0.39-1.27,0.39-1.94v-91.45
			C349.16,922.07,348.67,920.86,347.68,919.87z M301.34,887.91l30.48,30.48h-33.48v-30.48H301.34z M115.44,715.17h172.74V918.4
			h-10.16V760.9c0.01-1.41-0.48-2.61-1.47-3.61l-30.48-30.48c-1-0.99-2.2-1.48-3.6-1.47H115.44V715.17z M247.54,742.66l13.16,13.16
			h-13.16V742.66z M237.38,735.49v25.41c0,0.67,0.13,1.32,0.39,1.94c0.26,0.62,0.62,1.17,1.1,1.65c0.47,0.47,1.03,0.84,1.65,1.1
			c0.62,0.26,1.27,0.39,1.95,0.39h25.4V918.4h-15.24c-1.41-0.01-2.61,0.48-3.61,1.47l-18.8,18.85h-77.12l-18.8-18.85
			c-1-0.99-2.2-1.48-3.61-1.47H95.12V735.49H237.38z M81.96,887.91h3v30.48H51.48L81.96,887.91z M44.32,1009.84v-81.29h84.29
			l18.8,18.85c1,0.99,2.2,1.48,3.61,1.47h81.29c1.41,0.01,2.6-0.48,3.6-1.47l18.8-18.85h84.29v81.29H44.32z"/>
	</g>
</g>
<path class="st0" d="M211.98,959.04h-40.65c-1,0-1.99,0.09-2.97,0.29c-0.98,0.19-1.94,0.48-2.86,0.86c-0.93,0.39-1.8,0.85-2.64,1.41
	c-0.83,0.56-1.6,1.19-2.31,1.9c-0.7,0.71-1.34,1.47-1.89,2.31c-0.56,0.83-1.03,1.71-1.41,2.64c-0.38,0.93-0.67,1.88-0.86,2.86
	c-0.2,0.98-0.3,1.97-0.3,2.97s0.1,1.99,0.3,2.97c0.19,0.98,0.48,1.93,0.86,2.86c0.39,0.93,0.85,1.8,1.41,2.64
	c0.55,0.83,1.19,1.6,1.89,2.31c0.71,0.71,1.48,1.34,2.31,1.9c0.83,0.56,1.71,1.03,2.64,1.41c0.92,0.38,1.88,0.67,2.86,0.86
	c0.98,0.2,1.97,0.3,2.97,0.3h40.65c1,0,1.99-0.1,2.97-0.3c0.98-0.19,1.93-0.48,2.86-0.86c0.92-0.39,1.8-0.85,2.64-1.41
	c0.83-0.55,1.6-1.19,2.31-1.9c0.71-0.7,1.34-1.47,1.9-2.31c0.56-0.83,1.03-1.71,1.41-2.64c0.39-0.93,0.67-1.88,0.87-2.86
	c0.19-0.98,0.29-1.97,0.29-2.97s-0.1-1.99-0.29-2.97c-0.2-0.98-0.48-1.93-0.87-2.86c-0.38-0.92-0.85-1.8-1.41-2.64
	c-0.56-0.83-1.19-1.6-1.9-2.31c-0.71-0.71-1.48-1.34-2.31-1.9c-0.83-0.56-1.71-1.03-2.64-1.41c-0.93-0.38-1.88-0.67-2.86-0.86
	C213.97,959.14,212.98,959.04,211.98,959.04z M211.98,979.36h-40.65c-0.68,0-1.32-0.13-1.95-0.39c-0.62-0.26-1.17-0.62-1.65-1.1
	c-0.47-0.48-0.84-1.03-1.1-1.65c-0.26-0.62-0.39-1.27-0.39-1.94s0.13-1.32,0.39-1.94c0.26-0.62,0.62-1.17,1.1-1.65
	c0.47-0.47,1.03-0.84,1.65-1.1c0.62-0.26,1.27-0.39,1.95-0.39h40.65c0.67,0,1.32,0.12,1.94,0.39c0.62,0.26,1.17,0.62,1.65,1.1
	c0.48,0.48,0.84,1.03,1.1,1.65c0.26,0.62,0.39,1.27,0.39,1.94s-0.13,1.32-0.39,1.94c-0.26,0.62-0.62,1.17-1.1,1.65
	c-0.47,0.47-1.03,0.84-1.65,1.1C213.29,979.23,212.65,979.36,211.98,979.36z"/>
<path class="st0" d="M181.49,877.75c1,0,1.99-0.1,2.97-0.29c0.98-0.2,1.93-0.48,2.86-0.87c0.92-0.38,1.8-0.85,2.64-1.41
	c0.83-0.56,1.6-1.19,2.31-1.9c0.71-0.71,1.34-1.48,1.9-2.31c0.56-0.83,1.03-1.71,1.41-2.64c0.39-0.92,0.67-1.88,0.87-2.86
	c0.19-0.98,0.29-1.97,0.29-2.97c0-1-0.1-1.99-0.29-2.97c-0.2-0.98-0.48-1.94-0.87-2.86c-0.38-0.93-0.85-1.81-1.41-2.64
	c-0.56-0.83-1.19-1.6-1.9-2.31c-0.71-0.71-1.48-1.34-2.31-1.9c-0.83-0.56-1.71-1.03-2.64-1.41c-0.93-0.39-1.88-0.67-2.86-0.87
	c-0.98-0.19-1.97-0.29-2.97-0.29s-1.99,0.1-2.97,0.29c-0.98,0.2-1.94,0.48-2.86,0.87c-0.93,0.38-1.8,0.85-2.64,1.41
	c-0.83,0.56-1.6,1.19-2.31,1.9c-0.7,0.71-1.34,1.48-1.89,2.31c-0.56,0.83-1.03,1.71-1.41,2.64c-0.38,0.92-0.67,1.88-0.86,2.86
	c-0.2,0.98-0.3,1.97-0.3,2.97c0,1.01,0.1,1.99,0.3,2.97c0.19,0.98,0.48,1.94,0.86,2.86c0.39,0.93,0.85,1.81,1.41,2.64
	c0.55,0.83,1.19,1.6,1.89,2.31c0.71,0.71,1.48,1.34,2.31,1.9c0.83,0.55,1.71,1.03,2.64,1.41c0.92,0.39,1.88,0.67,2.86,0.87
	C179.5,877.65,180.49,877.75,181.49,877.75z M181.49,857.43c0.67,0,1.32,0.13,1.94,0.39c0.62,0.26,1.17,0.62,1.65,1.1
	c0.47,0.47,0.84,1.03,1.1,1.65c0.26,0.62,0.39,1.27,0.39,1.94c0,0.68-0.13,1.32-0.39,1.95c-0.26,0.62-0.62,1.17-1.1,1.65
	c-0.48,0.48-1.03,0.84-1.65,1.1c-0.62,0.26-1.27,0.39-1.94,0.39c-0.68,0-1.32-0.13-1.95-0.39c-0.62-0.26-1.17-0.62-1.65-1.1
	c-0.47-0.47-0.84-1.03-1.1-1.65c-0.26-0.62-0.39-1.27-0.39-1.95c0-0.67,0.13-1.32,0.39-1.94c0.26-0.62,0.62-1.17,1.1-1.65
	c0.47-0.48,1.03-0.84,1.65-1.1C180.17,857.56,180.82,857.43,181.49,857.43z"/>
<path class="st0" d="M176.41,842.19h10.16c0.63,0,1.24-0.11,1.82-0.33c0.59-0.22,1.12-0.54,1.59-0.96c0.47-0.42,0.84-0.91,1.14-1.46
	c0.29-0.56,0.46-1.15,0.54-1.78l5.08-45.72c0.09-0.72,0.03-1.42-0.19-2.11c-0.21-0.69-0.56-1.31-1.03-1.85
	c-0.49-0.55-1.07-0.96-1.75-1.26c-0.67-0.29-1.38-0.43-2.11-0.42h-20.32c-0.73-0.01-1.42,0.14-2.08,0.43
	c-0.67,0.29-1.24,0.71-1.73,1.24c-0.47,0.55-0.82,1.16-1.03,1.85c-0.21,0.69-0.28,1.39-0.19,2.11l5.08,45.72
	c0.07,0.62,0.24,1.21,0.53,1.77c0.29,0.55,0.66,1.04,1.12,1.45c0.46,0.42,0.98,0.74,1.57,0.96
	C175.19,842.07,175.79,842.18,176.41,842.19z M185.96,796.46L182,832.03h-1.02l-3.96-35.57H185.96z"/>
<path class="st0" d="M126.57,898.07h109.84c0.92,0,1.83-0.06,2.74-0.18c0.91-0.12,1.81-0.3,2.7-0.53c0.89-0.24,1.76-0.53,2.6-0.88
	c0.85-0.35,1.67-0.75,2.47-1.2c0.8-0.45,1.56-0.96,2.3-1.51c0.73-0.56,1.43-1.16,2.08-1.8c0.65-0.65,1.27-1.33,1.83-2.05
	c0.57-0.72,1.08-1.48,1.55-2.27c0.47-0.79,0.89-1.6,1.25-2.45s0.67-1.71,0.92-2.59c0.26-0.89,0.45-1.78,0.58-2.69
	c0.14-0.91,0.21-1.82,0.23-2.74c0.02-0.92-0.02-1.83-0.12-2.75c-0.1-0.91-0.26-1.81-0.48-2.7c-0.22-0.9-0.49-1.77-0.82-2.62
	c-0.33-0.86-0.71-1.69-1.15-2.49L201,767.4c-0.95-1.76-2.12-3.35-3.51-4.79c-1.39-1.44-2.93-2.67-4.65-3.69
	c-1.72-1.02-3.54-1.79-5.46-2.32c-1.93-0.53-3.89-0.8-5.89-0.8c-2,0-3.96,0.27-5.89,0.8s-3.75,1.3-5.46,2.32
	c-1.72,1.03-3.27,2.26-4.66,3.69c-1.39,1.44-2.55,3.04-3.51,4.79l-54.11,99.23c-0.44,0.81-0.82,1.64-1.15,2.49
	c-0.33,0.85-0.61,1.73-0.82,2.62c-0.22,0.89-0.38,1.79-0.48,2.7c-0.1,0.92-0.14,1.83-0.12,2.75c0.02,0.92,0.09,1.83,0.23,2.74
	c0.14,0.91,0.33,1.8,0.58,2.69c0.25,0.88,0.56,1.74,0.92,2.59c0.36,0.84,0.78,1.66,1.25,2.45c0.47,0.79,0.99,1.55,1.56,2.27
	c0.57,0.72,1.18,1.4,1.83,2.05c0.66,0.64,1.35,1.24,2.08,1.8c0.73,0.55,1.5,1.06,2.3,1.51s1.62,0.85,2.47,1.2
	c0.85,0.34,1.72,0.64,2.6,0.88c0.89,0.23,1.79,0.41,2.7,0.53C124.74,898.01,125.65,898.07,126.57,898.07z M116.82,871.5l54.11-99.28
	c0.52-0.95,1.15-1.81,1.9-2.59c0.75-0.78,1.59-1.44,2.52-1.99c0.93-0.55,1.92-0.97,2.96-1.26c1.04-0.29,2.1-0.43,3.19-0.43
	c1.08,0,2.14,0.15,3.18,0.43c1.05,0.29,2.03,0.7,2.96,1.26c0.93,0.55,1.77,1.21,2.52,1.99c0.75,0.78,1.39,1.64,1.91,2.59
	l54.11,99.28c0.88,1.58,1.34,3.27,1.37,5.08c0.02,0.73-0.05,1.47-0.18,2.2c-0.14,0.72-0.34,1.43-0.61,2.12
	c-0.28,0.69-0.61,1.34-1.02,1.96c-0.41,0.62-0.86,1.19-1.39,1.72c-0.52,0.53-1.08,1-1.69,1.42c-0.61,0.41-1.26,0.77-1.94,1.05
	c-0.68,0.29-1.39,0.5-2.11,0.65c-0.72,0.15-1.45,0.22-2.19,0.22H126.57c-0.73,0-1.45-0.07-2.17-0.21c-0.72-0.15-1.41-0.35-2.09-0.64
	c-0.67-0.28-1.31-0.62-1.92-1.03s-1.17-0.87-1.69-1.39s-0.98-1.08-1.38-1.69c-0.41-0.6-0.75-1.24-1.03-1.92
	c-0.28-0.67-0.49-1.37-0.63-2.09c-0.15-0.71-0.22-1.44-0.22-2.17C115.44,874.9,115.89,873.14,116.82,871.5z"/>
<path class="st2" d="M599.42,710.09h172.74v116.85H599.42V710.09z"/>
<g>
	<defs>
		<rect id="SVGID_00000012448051278153853010000016788464998930592906_" x="528.29" y="856.84" width="315" height="163.16"/>
	</defs>
	<clipPath id="SVGID_00000110460779174796049470000012259982349577009296_">
		<use xlink:href="#SVGID_00000012448051278153853010000016788464998930592906_"  style="overflow:visible;"/>
	</clipPath>
	<g style="clip-path:url(#SVGID_00000110460779174796049470000012259982349577009296_);">
		<path class="st12" d="M841.82,899.55l-40.65-40.65c-1-0.99-2.2-1.48-3.6-1.47h-76.21v10.16h74.13l30.48,30.48H762
			c-0.77,0.01-1.51,0.17-2.2,0.51c-0.69,0.34-1.28,0.81-1.76,1.42l-18.8,23.47H632.54L613.75,900c-0.51-0.64-1.12-1.12-1.85-1.46
			c-0.73-0.34-1.51-0.5-2.31-0.47h-63.97l30.48-30.48h74.12v-10.16h-76.21c-1.41-0.01-2.61,0.48-3.6,1.47l-40.65,40.65
			c-0.99,0.99-1.48,2.2-1.47,3.6v111.78c0,0.67,0.13,1.32,0.39,1.94c0.26,0.62,0.62,1.17,1.1,1.65c0.47,0.47,1.03,0.84,1.65,1.1
			c0.62,0.26,1.27,0.39,1.94,0.39h304.84c0.68,0,1.32-0.12,1.95-0.39c0.62-0.26,1.17-0.62,1.65-1.1c0.48-0.48,0.84-1.03,1.1-1.65
			c0.26-0.62,0.39-1.27,0.39-1.94V903.15C843.29,901.74,842.81,900.54,841.82,899.55z M538.45,1009.84V908.23h68.69l18.8,23.47
			c0.48,0.6,1.06,1.08,1.76,1.42c0.69,0.34,1.43,0.51,2.2,0.51h111.77c0.78,0,1.51-0.17,2.2-0.51c0.69-0.34,1.28-0.81,1.76-1.42
			l18.8-23.47h68.69v101.61H538.45z"/>
	</g>
</g>
<path class="st12" d="M812.81,928.56h10.16v40.65h-10.16V928.56z"/>
<path class="st12" d="M812.81,979.36h10.16v10.16h-10.16V979.36z"/>
<path class="st12" d="M741.68,943.8H629.9c-0.68,0-1.32,0.13-1.95,0.39c-0.62,0.26-1.17,0.62-1.65,1.1
	c-0.48,0.47-0.84,1.03-1.1,1.65c-0.26,0.62-0.39,1.27-0.39,1.95v20.32c0,0.67,0.13,1.32,0.39,1.94c0.26,0.62,0.62,1.17,1.1,1.65
	c0.47,0.48,1.03,0.84,1.65,1.1c0.62,0.26,1.27,0.39,1.95,0.39h111.77c0.68,0,1.32-0.13,1.94-0.39c0.62-0.26,1.17-0.62,1.65-1.1
	c0.47-0.47,0.84-1.03,1.1-1.65c0.26-0.62,0.39-1.27,0.39-1.94v-20.32c0-0.68-0.13-1.32-0.39-1.95c-0.26-0.62-0.62-1.17-1.1-1.65
	c-0.48-0.48-1.03-0.84-1.65-1.1C743,943.93,742.35,943.8,741.68,943.8z M736.6,964.12H634.98v-10.16H736.6V964.12z"/>
<g>
	<defs>
		<rect id="SVGID_00000069396467141948304940000000349009833478574773_" x="593.49" y="705" width="184" height="173.17"/>
	</defs>
	<clipPath id="SVGID_00000098193363918464577180000003372590348873938879_">
		<use xlink:href="#SVGID_00000069396467141948304940000000349009833478574773_"  style="overflow:visible;"/>
	</clipPath>
	<g style="clip-path:url(#SVGID_00000098193363918464577180000003372590348873938879_);">
		<path class="st12" d="M599.42,832.03h81.29v45.72h10.16v-45.72h81.29c0.67,0,1.32-0.13,1.94-0.39c0.62-0.26,1.17-0.62,1.65-1.1
			c0.47-0.48,0.84-1.03,1.1-1.65c0.26-0.62,0.39-1.27,0.39-1.94V710.09c0-0.67-0.13-1.32-0.39-1.94c-0.26-0.62-0.62-1.17-1.1-1.65
			c-0.48-0.47-1.03-0.84-1.65-1.1c-0.62-0.26-1.27-0.39-1.94-0.39H599.42c-0.68,0-1.32,0.13-1.95,0.39
			c-0.62,0.26-1.17,0.62-1.65,1.1c-0.48,0.48-0.84,1.03-1.1,1.65c-0.26,0.62-0.39,1.27-0.39,1.94v116.85c0,0.67,0.13,1.32,0.39,1.94
			c0.26,0.62,0.62,1.17,1.1,1.65c0.47,0.47,1.03,0.84,1.65,1.1C598.1,831.9,598.74,832.03,599.42,832.03z M682.54,785.13
			c0.45,0.38,0.96,0.67,1.52,0.88c0.56,0.2,1.14,0.3,1.73,0.3s1.17-0.1,1.73-0.3c0.56-0.2,1.07-0.49,1.52-0.88l12.19-10.16
			l56.75,46.9H613.59l56.95-46.8L682.54,785.13z M709.21,768.52l57.87-47.66v95.31L709.21,768.52z M685.79,774.61l-72.2-59.45
			h144.39L685.79,774.61z M662.37,768.52l-57.87,47.66v-95.31L662.37,768.52z"/>
	</g>
</g>
<path class="st12" d="M660.38,842.19h10.16v71.12h-10.16V842.19z"/>
<path class="st12" d="M701.03,842.19h10.16v71.12h-10.16V842.19z"/>
<path class="st12" d="M680.71,887.91h10.16v10.16h-10.16V887.91z"/>
<g>
	<defs>
		<rect id="SVGID_00000083797764496290277870000018200070258389468305_" x="425.3" y="443.54" width="20" height="200.3"/>
	</defs>
	<use xlink:href="#SVGID_00000083797764496290277870000018200070258389468305_"  style="overflow:visible;fill:#746887;"/>
	<clipPath id="SVGID_00000178886640159121049600000013067559035073986955_">
		<use xlink:href="#SVGID_00000083797764496290277870000018200070258389468305_"  style="overflow:visible;"/>
	</clipPath>
	<g style="clip-path:url(#SVGID_00000178886640159121049600000013067559035073986955_);">
		<path class="st15" d="M434.94,443.13c4.99,0,9.04,4.06,9.04,9.06v30.55c0,5.01-4.05,9.06-9.04,9.06c-4.98,0-9.03-4.06-9.03-9.06
			v-30.55C425.9,447.19,429.95,443.13,434.94,443.13z M434.94,521.99c4.99,0,9.04,4.06,9.04,9.06v102.41c0,5.01-4.05,9.06-9.04,9.06
			c-4.98,0-9.03-4.06-9.03-9.06V531.06C425.9,526.05,429.95,521.99,434.94,521.99z"/>
	</g>
</g>
<path class="st15" d="M392.41,598.8c3.53-3.54,9.24-3.54,12.78,0l29.74,29.84l29.75-29.84c3.53-3.54,9.25-3.54,12.78,0
	c3.53,3.54,3.53,9.28,0,12.82l-36.14,36.26c-3.53,3.54-9.25,3.54-12.78,0l-36.14-36.26C388.88,608.08,388.88,602.34,392.41,598.8z"
	/>
<path class="st15" d="M462.04,568.96c0,5.01,4.05,9.06,9.04,9.06h48.18c4.99,0,9.03-4.06,9.03-9.06c0-5.01-4.04-9.07-9.03-9.07
	h-48.18C466.09,559.89,462.04,563.95,462.04,568.96z"/>
<path class="st15" d="M462.04,520.61c0,5.01,4.05,9.07,9.04,9.07h84.32c4.99,0,9.03-4.06,9.03-9.07c0-5.01-4.04-9.06-9.03-9.06
	h-84.32C466.09,511.55,462.04,515.61,462.04,520.61z"/>
<g>
	<defs>
		<rect id="SVGID_00000086677304910956701490000007851148562269007023_" x="461.3" y="462.5" width="139.86" height="20"/>
	</defs>
	<use xlink:href="#SVGID_00000086677304910956701490000007851148562269007023_"  style="overflow:visible;fill:#746887;"/>
	<clipPath id="SVGID_00000036249921141420693230000015067305887782605721_">
		<use xlink:href="#SVGID_00000086677304910956701490000007851148562269007023_"  style="overflow:visible;"/>
	</clipPath>
	<g style="clip-path:url(#SVGID_00000036249921141420693230000015067305887782605721_);">
		<path class="st15" d="M462.04,472.27c0,5.01,4.05,9.06,9.04,9.06h120.45c4.99,0,9.03-4.06,9.03-9.06c0-5.01-4.04-9.06-9.03-9.06
			H471.08C466.09,463.21,462.04,467.27,462.04,472.27z"/>
	</g>
</g>
<g>
	<g transform="translate(175.296611, 1023.414728)">
		<g>
			<path d="M-15.54,81.63h-4.13c-0.1-2.09-0.87-3.72-2.31-4.88c-1.43-1.17-3.35-1.75-5.77-1.75c-2.35,0-4.18,0.49-5.48,1.48
				c-1.31,0.97-1.96,2.39-1.96,4.23c0,2.18,1.28,3.56,3.85,4.12l9.12,2.08c5.04,1.16,7.56,4.1,7.56,8.85c0,3.2-1.2,5.62-3.58,7.27
				c-2.39,1.64-5.46,2.46-9.21,2.46c-4.22,0-7.46-0.96-9.71-2.88c-2.25-1.92-3.38-4.75-3.38-8.5h4.12v0.1c0,2.35,0.8,4.19,2.42,5.52
				c1.61,1.33,3.79,2,6.54,2c2.43,0,4.46-0.43,6.08-1.29c1.64-0.86,2.46-2.28,2.46-4.25c0-1.26-0.29-2.25-0.85-2.96
				c-0.56-0.71-1.39-1.26-2.48-1.67c-1.08-0.42-2.74-0.88-4.98-1.4l-5.48-1.27c-2.29-0.51-3.99-1.44-5.1-2.79
				c-1.1-1.34-1.65-2.96-1.65-4.83c0-1.98,0.44-3.73,1.33-5.25c0.89-1.51,2.17-2.69,3.85-3.54c1.68-0.84,3.68-1.27,6-1.27
				C-20.05,71.23-15.82,74.7-15.54,81.63z"/>
		</g>
	</g>
</g>
<g>
	<g transform="translate(197.972012, 1023.414728)">
		<g>
			<path d="M-11.75,92c0,2.47-0.39,4.72-1.17,6.73c-0.77,2.02-1.93,3.62-3.48,4.81c-1.56,1.19-3.45,1.79-5.69,1.79
				c-1.54,0-2.84-0.29-3.9-0.88c-1.06-0.59-1.89-1.36-2.5-2.31h-0.08v11.88h-4V80.94h3.77v3.35h0.08c1.05-1.51,2.13-2.56,3.23-3.15
				c1.11-0.59,2.4-0.9,3.85-0.9c1.98,0,3.73,0.51,5.23,1.52c1.5,1.02,2.65,2.41,3.44,4.19C-12.16,87.73-11.75,89.74-11.75,92z
				 M-22.27,101.88c2,0,3.56-0.82,4.69-2.46c1.14-1.65,1.71-3.93,1.71-6.83c0-3.08-0.57-5.31-1.71-6.69
				c-1.12-1.38-2.73-2.06-4.81-2.06c-4.24,0-6.35,3.37-6.35,10.1c0,2.49,0.61,4.43,1.83,5.83
				C-25.7,101.18-24.15,101.88-22.27,101.88z"/>
		</g>
	</g>
</g>
<g>
	<g transform="translate(216.873851, 1023.414728)">
		<g>
			<path d="M-6.18,101.92c0.43,0,0.86-0.05,1.31-0.17v2.9c-0.91,0.3-1.64,0.46-2.21,0.46c-1.31,0-2.31-0.28-3.02-0.83
				c-0.71-0.57-1.1-1.5-1.17-2.79c-2.27,2.57-5.1,3.85-8.52,3.85c-2.2,0-3.99-0.64-5.4-1.9c-1.39-1.28-2.08-2.93-2.08-4.96
				c0-2.05,0.6-3.73,1.81-5.02c1.21-1.3,2.99-2.11,5.35-2.42l6.62-0.81c0.72-0.08,1.25-0.33,1.58-0.75c0.33-0.43,0.5-1.1,0.5-2.02
				c0-2.59-1.86-3.9-5.58-3.9c-1.62,0-2.89,0.37-3.79,1.1c-0.89,0.72-1.44,1.89-1.65,3.48h-3.67c0.05-2.54,0.88-4.49,2.48-5.85
				c1.61-1.36,3.97-2.04,7.08-2.04c2.67,0,4.83,0.56,6.5,1.69c1.68,1.11,2.52,2.77,2.52,4.98v13.69c0,0.41,0.1,0.72,0.31,0.96
				C-6.96,101.8-6.63,101.92-6.18,101.92z M-11.47,96.44v-3.9c-0.38,0.31-0.97,0.55-1.77,0.73c-0.79,0.18-2.59,0.47-5.4,0.85
				c-1.46,0.21-2.58,0.62-3.35,1.23c-0.77,0.6-1.15,1.46-1.15,2.58c0,2.72,1.44,4.08,4.31,4.08c1.23,0,2.42-0.25,3.54-0.75
				c1.14-0.5,2.05-1.18,2.75-2.04C-11.83,98.37-11.47,97.44-11.47,96.44z"/>
		</g>
	</g>
</g>
<g>
	<g transform="translate(235.77569, 1023.414728)">
		<g>
			<path d="M-2.32,84.11c1.26-1.51,2.42-2.53,3.48-3.06c1.05-0.53,2.25-0.79,3.58-0.79c2.26,0,4.08,0.71,5.46,2.12
				c1.38,1.41,2.06,3.3,2.06,5.69v16.58H8.29V89.42c0-1.88-0.34-3.27-1.02-4.19c-0.68-0.93-1.81-1.4-3.38-1.4
				c-1.03,0-1.97,0.3-2.81,0.9c-0.85,0.58-1.52,1.37-2.02,2.35c-0.5,0.99-0.75,2.06-0.75,3.23v14.33h-3.98V88.23
				c0-1.36-0.33-2.43-0.98-3.21c-0.66-0.79-1.57-1.19-2.75-1.19c-1.88,0-3.39,0.71-4.54,2.12c-1.14,1.41-1.71,3.25-1.71,5.54v13.15
				h-4V80.94h3.77v3.35h0.08c1.82-2.69,4.21-4.04,7.17-4.04c1.36,0,2.59,0.31,3.69,0.94C-3.83,81.82-2.96,82.79-2.32,84.11z"/>
		</g>
	</g>
</g>
<g>
	<g transform="translate(548.724433, 1023.414728)">
		<g>
			<path d="M85.85,104.65V72.11h4.4v32.54H85.85z"/>
		</g>
	</g>
</g>
<g>
	<g transform="translate(558.175352, 1023.414728)">
		<g>
			<path d="M103.15,90.11c0-2.18-0.39-3.77-1.17-4.77c-0.77-1-2.06-1.5-3.88-1.5c-1.88,0-3.4,0.71-4.56,2.12
				c-1.16,1.41-1.73,3.25-1.73,5.54v13.15h-4V80.94h3.77v3.35h0.08c1.03-1.42,2.13-2.44,3.31-3.08c1.18-0.64,2.46-0.96,3.85-0.96
				c2.64,0,4.68,0.71,6.12,2.12c1.44,1.41,2.17,3.39,2.17,5.96v16.31h-3.98V90.11z"/>
		</g>
	</g>
</g>
<g>
	<g transform="translate(577.077191, 1023.414728)">
		<g>
			<path d="M97.89,83.94c1.69-2.46,3.99-3.69,6.9-3.69c1.98,0,3.73,0.51,5.23,1.52c1.5,1.02,2.64,2.43,3.42,4.23
				c0.79,1.79,1.19,3.81,1.19,6.04c0,2.52-0.4,4.78-1.19,6.79c-0.78,2-1.94,3.58-3.48,4.75c-1.54,1.17-3.41,1.75-5.58,1.75
				c-1.45,0-2.73-0.28-3.85-0.83c-1.11-0.57-2.06-1.5-2.85-2.79h-0.08v2.94H93.8V72.11h4v11.83H97.89z M110.49,92.63
				c0-3.08-0.56-5.32-1.67-6.71c-1.1-1.39-2.72-2.08-4.85-2.08c-4.24,0-6.35,3.37-6.35,10.1c0,2.54,0.62,4.5,1.88,5.88
				c1.26,1.38,2.81,2.06,4.65,2.06c1.97,0,3.52-0.81,4.65-2.44C109.92,97.8,110.49,95.53,110.49,92.63z"/>
		</g>
	</g>
</g>
<g>
	<g transform="translate(595.97903, 1023.414728)">
		<g>
			<path d="M110.13,105.27c-2.29,0-4.28-0.56-5.96-1.67c-1.68-1.12-2.95-2.63-3.81-4.52c-0.86-1.89-1.29-3.99-1.29-6.31
				c0-2.39,0.44-4.53,1.33-6.42c0.9-1.89,2.18-3.38,3.83-4.46c1.67-1.09,3.61-1.65,5.85-1.65c2.29,0,4.27,0.56,5.94,1.69
				c1.67,1.11,2.93,2.62,3.79,4.54c0.86,1.91,1.29,4,1.29,6.29c0,2.32-0.45,4.45-1.33,6.38c-0.88,1.92-2.14,3.42-3.79,4.5
				C114.34,104.73,112.39,105.27,110.13,105.27z M116.98,92.9c0-2.68-0.59-4.88-1.77-6.6c-1.18-1.72-2.91-2.58-5.17-2.58
				c-2.18,0-3.87,0.85-5.06,2.54c-1.2,1.68-1.79,3.85-1.79,6.52c0,2.6,0.59,4.76,1.79,6.48c1.19,1.72,2.9,2.58,5.1,2.58
				c2.23,0,3.94-0.86,5.12-2.58C116.39,97.53,116.98,95.41,116.98,92.9z"/>
		</g>
	</g>
</g>
<g>
	<g transform="translate(614.880869, 1023.414728)">
		<g>
			<path d="M120.78,80.94h4.9l-8.02,11.52l8.33,12.19h-5.06l-5.9-8.94l-5.73,8.94h-5.02l8.33-12.19l-7.92-11.52h5.1l5.5,8.33
				L120.78,80.94z"/>
		</g>
	</g>
</g>
</svg>
