<?xml version="1.0" encoding="utf-8"?>
<!-- Generator: Adobe Illustrator 27.3.1, SVG Export Plug-In . SVG Version: 6.00 Build 0)  -->
<svg version="1.1" id="Capa_1" xmlns="http://www.w3.org/2000/svg" xmlns:xlink="http://www.w3.org/1999/xlink" x="0px" y="0px"
	 viewBox="0 0 831 402" style="enable-background:new 0 0 831 402;" xml:space="preserve">
<style type="text/css">
	.st0{fill:none;stroke:#000000;stroke-miterlimit:10;}
	.st1{fill:none;}
	.st2{font-family:'MyriadPro-Regular';}
	.st3{font-size:21px;}
	.st4{font-size:24px;}
	.st5{fill:none;stroke:#364F77;stroke-miterlimit:10;}
</style>
<line class="st0" x1="101.52" y1="51.68" x2="99.52" y2="323.68"/>
<line class="st0" x1="790.52" y1="325.68" x2="99.52" y2="323.68"/>
<line class="st0" x1="96.02" y1="66.18" x2="101.02" y2="66.18"/>
<line class="st0" x1="95.52" y1="129.18" x2="100.52" y2="129.18"/>
<line class="st0" x1="95.52" y1="190.18" x2="100.52" y2="190.18"/>
<line class="st0" x1="95.52" y1="251.18" x2="100.52" y2="251.18"/>
<line class="st0" x1="94.52" y1="314.18" x2="99.52" y2="314.18"/>
<rect x="61.87" y="62.83" class="st1" width="36.96" height="19.36"/>
<text transform="matrix(1 0 0 1 61.8725 77.7358)" class="st2 st3">0.4</text>
<rect x="62.35" y="123.95" class="st1" width="36.96" height="19.36"/>
<text transform="matrix(1 0 0 1 62.3514 138.8616)" class="st2 st3">0.3</text>
<rect x="62.35" y="184.95" class="st1" width="36.96" height="19.36"/>
<text transform="matrix(1 0 0 1 62.3514 199.8614)" class="st2 st3">0.2</text>
<rect x="62.35" y="245.95" class="st1" width="36.96" height="19.36"/>
<text transform="matrix(1 0 0 1 62.3513 260.8617)" class="st2 st3">0.1</text>
<rect x="62.48" y="307.09" class="st1" width="36.96" height="19.36"/>
<text transform="matrix(1 0 0 1 62.4836 322.0032)" class="st2 st3">0.0</text>
<rect x="103.48" y="20.09" class="st1" width="132.03" height="19.36"/>
<text transform="matrix(1 0 0 1 103.4841 37.1335)" class="st2 st4">Unimodal</text>
<rect x="29.44" y="143.68" class="st1" width="22.53" height="99.08"/>
<text transform="matrix(6.123234e-17 -1 1 6.123234e-17 46.4797 242.752)" class="st2 st4">Densidad</text>
<rect x="445.67" y="370.28" class="st1" width="19.84" height="19.36"/>
<text transform="matrix(1 0 0 1 445.673 387.3184)" class="st2 st4">x</text>
<rect x="270.66" y="340.66" class="st1" width="19.84" height="19.36"/>
<text transform="matrix(1 0 0 1 270.6608 357.6981)" class="st2 st4">-3</text>
<line class="st0" x1="278.52" y1="331.68" x2="278.52" y2="323.68"/>
<rect x="454.16" y="341.66" class="st1" width="19.84" height="19.36"/>
<text transform="matrix(1 0 0 1 454.1608 358.6981)" class="st2 st4">0</text>
<line class="st0" x1="462.02" y1="332.68" x2="462.02" y2="324.68"/>
<rect x="639.16" y="339.66" class="st1" width="19.84" height="19.36"/>
<text transform="matrix(1 0 0 1 639.1608 356.6981)" class="st2 st4">3</text>
<line class="st0" x1="645.02" y1="332.68" x2="645.02" y2="324.68"/>
<path class="st5" d="M134.02,313.18c12.56-0.1,31.64-0.19,55,0c34.56,0.28,40.62,0.86,51.48,0.32c6.56-0.32,50.76-2.84,81.52-20.32
	c28.15-16.01,31.52-36.88,73-122c47.64-97.77,59.16-102.98,67-103c5.39-0.01,19.08,2.4,68,104c37.91,78.74,46.09,111.34,81,128
	c11.86,5.66,26.57,7.11,56,10c46.25,4.55,84.25,3.32,109.5,1.5"/>
</svg>
