<?xml version="1.0" encoding="utf-8"?>
<!-- Generator: Adobe Illustrator 27.5.0, SVG Export Plug-In . SVG Version: 6.00 Build 0)  -->
<svg version="1.1" id="Capa_1" xmlns="http://www.w3.org/2000/svg" xmlns:xlink="http://www.w3.org/1999/xlink" x="0px" y="0px"
	 viewBox="0 0 1095 746" style="enable-background:new 0 0 1095 746;" xml:space="preserve">
<style type="text/css">
	.st0{fill:#437AF7;}
	.st1{fill:none;}
	.st2{font-family:'Mulish-Black';}
	.st3{font-size:36px;}
</style>
<g>
	<path class="st0" d="M90.17,586.5c36.76-2.55,76.08-9.76,113.08-20.84c85.98-25.77,159.87-71.13,219.61-134.81
		c50.03-53.33,86.88-116.27,109.52-187.09c16.16-50.54,22.04-95.91,23.93-128.19c1.52,31.74,6.78,76.29,21.91,125.93
		c21.16,69.44,56.12,131.46,103.91,184.34c117.11,129.61,267.02,155.84,337.39,160.67L90.17,586.5L90.17,586.5z"/>
	<path d="M556.27,123.7c2,31.05,7.58,72.35,21.48,117.94c21.19,69.51,56.18,131.59,104.01,184.53
		c32.62,36.11,70.4,66.91,112.29,91.54c34.31,20.18,71.63,36.4,110.92,48.21C944.6,577.84,980,583.44,1007.1,586H102.32
		c33.23-3.17,68.08-9.98,101.08-19.87c38.35-11.49,74.91-27.22,108.67-46.73c41.16-23.79,78.56-53.47,111.16-88.22
		c50.08-53.38,86.96-116.39,109.63-187.28C547.72,197.41,553.9,155.3,556.27,123.7 M556.5,79.5c-0.17,5.18-0.35,13.2-0.12,23.6
		C556.71,92.59,556.61,84.55,556.5,79.5L556.5,79.5z M556.38,103.1c-1.95,60.92-18.68,204.61-133.88,327.4
		C280.97,581.36,97.82,586.61,66,587h979c-30.99-0.21-220.83-4.7-362.5-161.5C572.57,303.84,557.67,163.55,556.38,103.1
		L556.38,103.1z"/>
</g>
<path class="st1" d="M556,79"/>
<path class="st1" d="M556,921"/>
<rect x="240" y="626.25" class="st1" width="606.78" height="40.75"/>
<text transform="matrix(1 0 0 1 422.8457 652.7451)" class="st2 st3">Leptocurtosis</text>
</svg>
