<?xml version="1.0" encoding="utf-8"?>
<!-- Generator: Adobe Illustrator 27.5.0, SVG Export Plug-In . SVG Version: 6.00 Build 0)  -->
<svg version="1.1" id="Capa_1" xmlns="http://www.w3.org/2000/svg" xmlns:xlink="http://www.w3.org/1999/xlink" x="0px" y="0px"
	 viewBox="0 0 1095 746" style="enable-background:new 0 0 1095 746;" xml:space="preserve">
<style type="text/css">
	.st0{fill:none;}
	.st1{fill:#3A93D6;}
	.st2{font-family:'Mulish-Black';}
	.st3{font-size:36px;}
</style>
<path class="st0" d="M556-763"/>
<g>
	<path class="st1" d="M76.83,586.5c156.16-15.38,272.55-67.73,346.05-155.68c33.12-39.64,58.54-87.29,77.71-145.68
		c16.19-49.32,24.52-95.91,31.21-133.34c7.73-43.24,12.83-71.8,24.63-71.8c11.83,0.09,16.48,28.44,23.51,71.34
		c12.1,73.82,30.38,185.39,102.16,274.47c72.92,90.5,191.42,144.53,352.31,160.69H76.83z"/>
	<path d="M556.44,79.5l0.05,1c11.35,0.09,16.22,29.8,22.96,70.92c6.02,36.75,13.52,82.48,28.61,130.96
		c17.87,57.39,41.96,104.41,73.66,143.75c71.57,88.82,186.97,142.56,343.2,159.87H86.49c151.48-16.56,264.71-68.61,336.78-154.86
		c33.16-39.69,58.61-87.39,77.81-145.84c16.21-49.35,24.54-95.96,31.23-133.4c7.41-41.45,12.76-71.39,24.14-71.4L556.44,79.5
		 M556.44,79.5c-32.86,0.02-14.51,208.08-133.94,351C325.36,546.75,172.25,577.8,66,587h979c-110.13-9.82-266.48-42.33-362.5-161.5
		c-114.53-142.15-93.39-345.75-126-346C556.48,79.5,556.46,79.5,556.44,79.5L556.44,79.5z"/>
</g>
<path class="st0" d="M556,79"/>
<path class="st0" d="M556,951"/>
<rect x="251.88" y="645.01" class="st0" width="606.78" height="40.75"/>
<text transform="matrix(1 0 0 1 439.1541 671.5075)" class="st2 st3">Mesocurtosis</text>
</svg>
