<?xml version="1.0" encoding="utf-8"?>
<!-- Generator: Adobe Illustrator 27.5.0, SVG Export Plug-In . SVG Version: 6.00 Build 0)  -->
<svg version="1.1" id="Capa_1" xmlns="http://www.w3.org/2000/svg" xmlns:xlink="http://www.w3.org/1999/xlink" x="0px" y="0px"
	 viewBox="0 0 1095 746" style="enable-background:new 0 0 1095 746;" xml:space="preserve">
<style type="text/css">
	.st0{fill:#4CD2ED;}
	.st1{fill:none;}
	.st2{font-family:'Mulish-Black';}
	.st3{font-size:36px;}
</style>
<g>
	<path class="st0" d="M239.98,586c-4.05-85.84,7.92-167.75,35.58-243.48c24.39-66.79,60.63-126.58,104.79-172.91
		c54.32-56.99,117.08-89.67,172.17-89.67c1.33,0,2.65,0.02,3.98,0.06c52.62,1.52,111.71,34.33,162.14,90.01
		c42.26,46.67,76.5,106.79,98.99,173.87c25.42,75.8,35.31,157.25,29.42,242.11H239.98V586z"/>
	<path d="M552.51,79.44v1c1.32,0,2.65,0.02,3.96,0.06c26.14,0.76,53.55,8.98,81.45,24.43c28.07,15.54,55.1,37.55,80.33,65.42
		c42.22,46.62,76.41,106.68,98.89,173.7c12.19,36.34,20.9,74.65,25.91,113.87c5.3,41.52,6.48,84.44,3.51,127.58H240.45
		c-2.03-43.68,0.17-86.97,6.53-128.71c6.01-39.4,15.78-77.79,29.04-114.1c24.37-66.72,60.56-126.45,104.68-172.73
		c54.23-56.89,116.85-89.52,171.81-89.52V79.44 M552.51,79.44c-138.08,0-327.48,204.59-313.01,507.06c202.67,0,405.33,0,608,0
		c20.68-294.73-155.24-503.07-291-507C555.17,79.46,553.84,79.44,552.51,79.44L552.51,79.44z"/>
</g>
<path class="st1" d="M556,79"/>
<rect x="252.17" y="636.05" class="st1" width="606.78" height="40.75"/>
<text transform="matrix(1 0 0 1 443.7778 662.5449)" class="st2 st3">Platicurtosis</text>
</svg>
