<?xml version="1.0" encoding="utf-8"?>
<!-- Generator: Adobe Illustrator 27.2.0, SVG Export Plug-In . SVG Version: 6.00 Build 0)  -->
<svg version="1.1" id="Capa_1" xmlns="http://www.w3.org/2000/svg" xmlns:xlink="http://www.w3.org/1999/xlink" x="0px" y="0px"
	 viewBox="0 0 680 111" style="enable-background:new 0 0 680 111;" xml:space="preserve">
<style type="text/css">
	.st0{fill:#7E1889;}
</style>
<g transform="scale(1,-1) translate(0,-111)">
	<path id="iteration0" class="st0" d="M0,0h128L64,110.85L0,0z"/>
	<g transform="translate(138,0)">
		<g id="iteration1">
			<g transform="scale(0.5,0.5)">
				<path id="iteration0_00000168824447558844560920000005241400954747868092_" class="st0" d="M0,0h64L32,55.43L0,0z"/>
			</g>
			<g transform="translate(64,0) scale(0.5,0.5)">
				<path id="iteration0_00000167354275732066979390000010273184295325295492_" class="st0" d="M64,0h64L96,55.43L64,0z"/>
			</g>
			<g transform="translate(32,55.426) scale(0.5,0.5)">
				<path id="iteration0_00000114075209934541638550000007885424190890102925_" class="st0" d="M32,55.43h64l-32,55.43L32,55.43z"/>
			</g>
		</g>
	</g>
	<g transform="translate(276,0)">
		<g id="iteration2">
			<g transform="scale(0.5,0.5)">
				<g id="iteration1_00000032630579156299324570000010303770763630733206_">
					<g transform="scale(0.5,0.5)">
						<path id="iteration0_00000090999543071297837170000018286447900394532543_" class="st0" d="M0,0h32L16,27.71L0,0z"/>
					</g>
					<g transform="translate(64,0) scale(0.5,0.5)">
						<path id="iteration0_00000172415204762367516840000004287194729088140426_" class="st0" d="M32,0h32L48,27.71L32,0z"/>
					</g>
					<g transform="translate(32,55.426) scale(0.5,0.5)">
						<path id="iteration0_00000124121658543755282560000002254548366360465050_" class="st0" d="M16,27.71h32L32,55.43L16,27.71z"
							/>
					</g>
				</g>
			</g>
			<g transform="translate(64,0) scale(0.5,0.5)">
				<g id="iteration1_00000137133965578635600110000006332444226256042158_">
					<g transform="scale(0.5,0.5)">
						<path id="iteration0_00000146483321783096500640000007577110572589463967_" class="st0" d="M64,0h32L80,27.71L64,0z"/>
					</g>
					<g transform="translate(64,0) scale(0.5,0.5)">
						<path id="iteration0_00000002351652494526063320000004749888060674965896_" class="st0" d="M96,0h32l-16,27.71L96,0z"/>
					</g>
					<g transform="translate(32,55.426) scale(0.5,0.5)">
						<path id="iteration0_00000076601783892418396440000000835041022033091720_" class="st0" d="M80,27.71h32L96,55.43L80,27.71z"
							/>
					</g>
				</g>
			</g>
			<g transform="translate(32,55.426) scale(0.5,0.5)">
				<g id="iteration1_00000054947869982172163920000013287229700479809424_">
					<g transform="scale(0.5,0.5)">
						<path id="iteration0_00000128487627839208923780000007255976920497811348_" class="st0" d="M32,55.43h32L48,83.14L32,55.43z"
							/>
					</g>
					<g transform="translate(64,0) scale(0.5,0.5)">
						<path id="iteration0_00000163038907723755467490000006985338826916356994_" class="st0" d="M64,55.43h32L80,83.14L64,55.43z"
							/>
					</g>
					<g transform="translate(32,55.426) scale(0.5,0.5)">
						<path id="iteration0_00000003791997770998499110000018125210820557297814_" class="st0" d="M48,83.14h32l-16,27.71L48,83.14z"
							/>
					</g>
				</g>
			</g>
		</g>
	</g>
	<g transform="translate(414,0)">
		<g id="iteration3">
			<g transform="scale(0.5,0.5)">
				<g id="iteration2_00000163075022811291975030000009947174177458153386_">
					<g transform="scale(0.5,0.5)">
						<g id="iteration1_00000096746757164835709090000012682456328965150381_">
							<g transform="scale(0.5,0.5)">
								<path id="iteration0_00000168091214135140744890000008133152738935747464_" class="st0" d="M0,0h16L8,13.86L0,0z"/>
							</g>
							<g transform="translate(64,0) scale(0.5,0.5)">
								<path id="iteration0_00000015317044354462203090000017401425322576190868_" class="st0" d="M16,0h16l-8,13.86L16,0z"/>
							</g>
							<g transform="translate(32,55.426) scale(0.5,0.5)">
								<path id="iteration0_00000181049041174244938400000011009142660045611931_" class="st0" d="M8,13.86h16l-8,13.86L8,13.86z"
									/>
							</g>
						</g>
					</g>
					<g transform="translate(64,0) scale(0.5,0.5)">
						<g id="iteration1_00000170267665592589814900000014217494820017229749_">
							<g transform="scale(0.5,0.5)">
								<path id="iteration0_00000105401516731027167570000014186854973500138416_" class="st0" d="M32,0h16l-8,13.86L32,0z"/>
							</g>
							<g transform="translate(64,0) scale(0.5,0.5)">
								<path id="iteration0_00000012456431637022562630000014425637441574648243_" class="st0" d="M48,0h16l-8,13.86L48,0z"/>
							</g>
							<g transform="translate(32,55.426) scale(0.5,0.5)">
								<path id="iteration0_00000061432533912217065420000006939438393670788535_" class="st0" d="M40,13.86h16l-8,13.86L40,13.86z
									"/>
							</g>
						</g>
					</g>
					<g transform="translate(32,55.426) scale(0.5,0.5)">
						<g id="iteration1_00000034060702705749685750000012808779836889306797_">
							<g transform="scale(0.5,0.5)">
								<path id="iteration0_00000150815729206878008270000016388425311607820169_" class="st0" d="M16,27.71h16l-8,13.86L16,27.71z
									"/>
							</g>
							<g transform="translate(64,0) scale(0.5,0.5)">
								<path id="iteration0_00000002367533178749453970000009076656424913137812_" class="st0" d="M32,27.71h16l-8,13.86L32,27.71z
									"/>
							</g>
							<g transform="translate(32,55.426) scale(0.5,0.5)">
								<path id="iteration0_00000094577171603661871110000011409426574567014585_" class="st0" d="M24,41.57h16l-8,13.86L24,41.57z
									"/>
							</g>
						</g>
					</g>
				</g>
			</g>
			<g transform="translate(64,0) scale(0.5,0.5)">
				<g id="iteration2_00000135662766468882851470000016297833460827986821_">
					<g transform="scale(0.5,0.5)">
						<g id="iteration1_00000152250591828358864930000003519736073131504001_">
							<g transform="scale(0.5,0.5)">
								<path id="iteration0_00000093888206350771069240000015472158446776859785_" class="st0" d="M64,0h16l-8,13.86L64,0z"/>
							</g>
							<g transform="translate(64,0) scale(0.5,0.5)">
								<path id="iteration0_00000118399501665940813010000009195273451496435629_" class="st0" d="M80,0h16l-8,13.86L80,0z"/>
							</g>
							<g transform="translate(32,55.426) scale(0.5,0.5)">
								<path id="iteration0_00000139982318624775377240000004381594607534629813_" class="st0" d="M72,13.86h16l-8,13.86L72,13.86z
									"/>
							</g>
						</g>
					</g>
					<g transform="translate(64,0) scale(0.5,0.5)">
						<g id="iteration1_00000069382776850643322050000013687618105737044920_">
							<g transform="scale(0.5,0.5)">
								<path id="iteration0_00000030479381398869561580000002601354629777156739_" class="st0" d="M96,0h16l-8,13.86L96,0z"/>
							</g>
							<g transform="translate(64,0) scale(0.5,0.5)">
								<path id="iteration0_00000047740394309005164170000015907015313158532737_" class="st0" d="M112,0h16l-8,13.86L112,0z"/>
							</g>
							<g transform="translate(32,55.426) scale(0.5,0.5)">
								<path id="iteration0_00000035491042091299333780000007231772605384871554_" class="st0" d="M104,13.86h16l-8,13.86
									L104,13.86z"/>
							</g>
						</g>
					</g>
					<g transform="translate(32,55.426) scale(0.5,0.5)">
						<g id="iteration1_00000134932351144448158030000007143001908168050360_">
							<g transform="scale(0.5,0.5)">
								<path id="iteration0_00000128466098847236505220000009239908217675446411_" class="st0" d="M80,27.71h16l-8,13.86L80,27.71z
									"/>
							</g>
							<g transform="translate(64,0) scale(0.5,0.5)">
								<path id="iteration0_00000028304852503157333020000007462509234123650952_" class="st0" d="M96,27.71h16l-8,13.86L96,27.71z
									"/>
							</g>
							<g transform="translate(32,55.426) scale(0.5,0.5)">
								<path id="iteration0_00000081620903786374400070000018406939667369645736_" class="st0" d="M88,41.57h16l-8,13.86L88,41.57z
									"/>
							</g>
						</g>
					</g>
				</g>
			</g>
			<g transform="translate(32,55.426) scale(0.5,0.5)">
				<g id="iteration2_00000119099397823052802570000014254752942224829315_">
					<g transform="scale(0.5,0.5)">
						<g id="iteration1_00000142871761742195790920000013774425421296166591_">
							<g transform="scale(0.5,0.5)">
								<path id="iteration0_00000032621746752649006070000018144152434674359213_" class="st0" d="M32,55.43h16l-8,13.86L32,55.43z
									"/>
							</g>
							<g transform="translate(64,0) scale(0.5,0.5)">
								<path id="iteration0_00000102525795101323736420000012777157206238495630_" class="st0" d="M48,55.43h16l-8,13.86L48,55.43z
									"/>
							</g>
							<g transform="translate(32,55.426) scale(0.5,0.5)">
								<path id="iteration0_00000013904255906490833100000013661889826776425659_" class="st0" d="M40,69.28h16l-8,13.86L40,69.28z
									"/>
							</g>
						</g>
					</g>
					<g transform="translate(64,0) scale(0.5,0.5)">
						<g id="iteration1_00000084493466216872418310000002057808950758260398_">
							<g transform="scale(0.5,0.5)">
								<path id="iteration0_00000163059292680650586950000005484210080888863624_" class="st0" d="M64,55.43h16l-8,13.86L64,55.43z
									"/>
							</g>
							<g transform="translate(64,0) scale(0.5,0.5)">
								<path id="iteration0_00000106120281838433939390000000356382970891451553_" class="st0" d="M80,55.43h16l-8,13.86L80,55.43z
									"/>
							</g>
							<g transform="translate(32,55.426) scale(0.5,0.5)">
								<path id="iteration0_00000121974026070586599120000001661549888932404103_" class="st0" d="M72,69.28h16l-8,13.86L72,69.28z
									"/>
							</g>
						</g>
					</g>
					<g transform="translate(32,55.426) scale(0.5,0.5)">
						<g id="iteration1_00000118358030503308015960000008658818971444143243_">
							<g transform="scale(0.5,0.5)">
								<path id="iteration0_00000096041491677675765390000003031180872349969042_" class="st0" d="M48,83.14h16L56,97L48,83.14z"/>
							</g>
							<g transform="translate(64,0) scale(0.5,0.5)">
								<path id="iteration0_00000065793548415107743820000009964335297321747381_" class="st0" d="M64,83.14h16L72,97L64,83.14z"/>
							</g>
							<g transform="translate(32,55.426) scale(0.5,0.5)">
								<path id="iteration0_00000148635456067273543400000015082348508824956068_" class="st0" d="M56,97h16l-8,13.86L56,97z"/>
							</g>
						</g>
					</g>
				</g>
			</g>
		</g>
	</g>
	<g transform="translate(552,0)">
		<g id="iteration4">
			<g transform="scale(0.5,0.5)">
				<g id="iteration3_00000078751997554408865210000011686686367421321904_">
					<g transform="scale(0.5,0.5)">
						<g id="iteration2_00000147913365271474744730000000314333641755869838_">
							<g transform="scale(0.5,0.5)">
								<g id="iteration1_00000080198897196283137740000007025165123365943939_">
									<g transform="scale(0.5,0.5)">
										<path id="iteration0_00000178204754975610146100000013983192675625317512_" class="st0" d="M0,0h8L4,6.93L0,0z"/>
									</g>
									<g transform="translate(64,0) scale(0.5,0.5)">
										<path id="iteration0_00000002379454414287032280000014047144896284674708_" class="st0" d="M8,0h8l-4,6.93L8,0z"/>
									</g>
									<g transform="translate(32,55.426) scale(0.5,0.5)">
										<path id="iteration0_00000160192789459600845860000001445301060551600048_" class="st0" d="M4,6.93h8l-4,6.93L4,6.93z"/>
									</g>
								</g>
							</g>
							<g transform="translate(64,0) scale(0.5,0.5)">
								<g id="iteration1_00000086650497961421668210000018096824948594970275_">
									<g transform="scale(0.5,0.5)">
										<path id="iteration0_00000133508589527131457640000013692940885893553814_" class="st0" d="M16,0h8l-4,6.93L16,0z"/>
									</g>
									<g transform="translate(64,0) scale(0.5,0.5)">
										<path id="iteration0_00000104704607517926715780000005325372580963730343_" class="st0" d="M24,0h8l-4,6.93L24,0z"/>
									</g>
									<g transform="translate(32,55.426) scale(0.5,0.5)">
										<path id="iteration0_00000052104710212812303650000005195423843546618252_" class="st0" d="M20,6.93h8l-4,6.93L20,6.93z"
											/>
									</g>
								</g>
							</g>
							<g transform="translate(32,55.426) scale(0.5,0.5)">
								<g id="iteration1_00000028315366231483785820000012366393575539282869_">
									<g transform="scale(0.5,0.5)">
										<path id="iteration0_00000136378174063333392200000000411397486306834084_" class="st0" d="M8,13.86h8l-4,6.93L8,13.86z"
											/>
									</g>
									<g transform="translate(64,0) scale(0.5,0.5)">
										<path id="iteration0_00000070828240485743055070000009672525152682607784_" class="st0" d="M16,13.86h8l-4,6.93L16,13.86z
											"/>
									</g>
									<g transform="translate(32,55.426) scale(0.5,0.5)">
										<path id="iteration0_00000124844776155536176110000010539047613467054228_" class="st0" d="M12,20.78h8l-4,6.93L12,20.78z
											"/>
									</g>
								</g>
							</g>
						</g>
					</g>
					<g transform="translate(64,0) scale(0.5,0.5)">
						<g id="iteration2_00000062191386071132299790000006822930253043856517_">
							<g transform="scale(0.5,0.5)">
								<g id="iteration1_00000180348346817653933240000016704177956628960898_">
									<g transform="scale(0.5,0.5)">
										<path id="iteration0_00000147222136802903440100000013909424392265784210_" class="st0" d="M32,0h8l-4,6.93L32,0z"/>
									</g>
									<g transform="translate(64,0) scale(0.5,0.5)">
										<path id="iteration0_00000087406024600363238690000016991364254915543434_" class="st0" d="M40,0h8l-4,6.93L40,0z"/>
									</g>
									<g transform="translate(32,55.426) scale(0.5,0.5)">
										<path id="iteration0_00000098917808360493467120000000864584315369461139_" class="st0" d="M36,6.93h8l-4,6.93L36,6.93z"
											/>
									</g>
								</g>
							</g>
							<g transform="translate(64,0) scale(0.5,0.5)">
								<g id="iteration1_00000055705166118716458790000017213465092061985175_">
									<g transform="scale(0.5,0.5)">
										<path id="iteration0_00000127724947120935303380000008382650425897808280_" class="st0" d="M48,0h8l-4,6.93L48,0z"/>
									</g>
									<g transform="translate(64,0) scale(0.5,0.5)">
										<path id="iteration0_00000031176843803408047160000015169030930468692911_" class="st0" d="M56,0h8l-4,6.93L56,0z"/>
									</g>
									<g transform="translate(32,55.426) scale(0.5,0.5)">
										<path id="iteration0_00000096749840332941114680000014418423866606506139_" class="st0" d="M52,6.93h8l-4,6.93L52,6.93z"
											/>
									</g>
								</g>
							</g>
							<g transform="translate(32,55.426) scale(0.5,0.5)">
								<g id="iteration1_00000018946501821961735810000009993478031703701916_">
									<g transform="scale(0.5,0.5)">
										<path id="iteration0_00000064350812414200172280000005334270300736185781_" class="st0" d="M40,13.86h8l-4,6.93L40,13.86z
											"/>
									</g>
									<g transform="translate(64,0) scale(0.5,0.5)">
										<path id="iteration0_00000056400024236224913920000000142852727289584272_" class="st0" d="M48,13.86h8l-4,6.93L48,13.86z
											"/>
									</g>
									<g transform="translate(32,55.426) scale(0.5,0.5)">
										<path id="iteration0_00000164490468724640098900000007633962164465482687_" class="st0" d="M44,20.78h8l-4,6.93L44,20.78z
											"/>
									</g>
								</g>
							</g>
						</g>
					</g>
					<g transform="translate(32,55.426) scale(0.5,0.5)">
						<g id="iteration2_00000137837656642323433290000013096083511367476620_">
							<g transform="scale(0.5,0.5)">
								<g id="iteration1_00000166646710375760064990000016845349040451360685_">
									<g transform="scale(0.5,0.5)">
										<path id="iteration0_00000094602239904311988250000010962304220338790017_" class="st0" d="M16,27.71h8l-4,6.93L16,27.71z
											"/>
									</g>
									<g transform="translate(64,0) scale(0.5,0.5)">
										<path id="iteration0_00000018201509106457423730000002849803560666049688_" class="st0" d="M24,27.71h8l-4,6.93L24,27.71z
											"/>
									</g>
									<g transform="translate(32,55.426) scale(0.5,0.5)">
										<path id="iteration0_00000145747889167954218530000003112211359356392343_" class="st0" d="M20,34.64h8l-4,6.93L20,34.64z
											"/>
									</g>
								</g>
							</g>
							<g transform="translate(64,0) scale(0.5,0.5)">
								<g id="iteration1_00000062164676779517179350000010018537045443921836_">
									<g transform="scale(0.5,0.5)">
										<path id="iteration0_00000111155274480329853160000000256313958627633543_" class="st0" d="M32,27.71h8l-4,6.93L32,27.71z
											"/>
									</g>
									<g transform="translate(64,0) scale(0.5,0.5)">
										<path id="iteration0_00000059295883691814490110000013948221212526402709_" class="st0" d="M40,27.71h8l-4,6.93L40,27.71z
											"/>
									</g>
									<g transform="translate(32,55.426) scale(0.5,0.5)">
										<path id="iteration0_00000151543050298595060880000018272538549639915661_" class="st0" d="M36,34.64h8l-4,6.93L36,34.64z
											"/>
									</g>
								</g>
							</g>
							<g transform="translate(32,55.426) scale(0.5,0.5)">
								<g id="iteration1_00000161618305238258745290000006414981426697504921_">
									<g transform="scale(0.5,0.5)">
										<path id="iteration0_00000080919587477168189620000014735620286322608269_" class="st0" d="M24,41.57h8l-4,6.93L24,41.57z
											"/>
									</g>
									<g transform="translate(64,0) scale(0.5,0.5)">
										<path id="iteration0_00000114066417287669742700000007512747011731797918_" class="st0" d="M32,41.57h8l-4,6.93L32,41.57z
											"/>
									</g>
									<g transform="translate(32,55.426) scale(0.5,0.5)">
										<path id="iteration0_00000023992692720691322960000002034313890359633331_" class="st0" d="M28,48.5h8l-4,6.93L28,48.5z"
											/>
									</g>
								</g>
							</g>
						</g>
					</g>
				</g>
			</g>
			<g transform="translate(64,0) scale(0.5,0.5)">
				<g id="iteration3_00000173134103684465173670000007528626090470071706_">
					<g transform="scale(0.5,0.5)">
						<g id="iteration2_00000029041114993768436550000010770063569181397435_">
							<g transform="scale(0.5,0.5)">
								<g id="iteration1_00000057828235487596620660000014561544529359555487_">
									<g transform="scale(0.5,0.5)">
										<path id="iteration0_00000145033875496137751600000014283614790919698099_" class="st0" d="M64,0h8l-4,6.93L64,0z"/>
									</g>
									<g transform="translate(64,0) scale(0.5,0.5)">
										<path id="iteration0_00000010302638661242374510000005122576245684644517_" class="st0" d="M72,0h8l-4,6.93L72,0z"/>
									</g>
									<g transform="translate(32,55.426) scale(0.5,0.5)">
										<path id="iteration0_00000088837096621867084160000002642263174556857252_" class="st0" d="M68,6.93h8l-4,6.93L68,6.93z"
											/>
									</g>
								</g>
							</g>
							<g transform="translate(64,0) scale(0.5,0.5)">
								<g id="iteration1_00000133503500788401429370000012303402520799585925_">
									<g transform="scale(0.5,0.5)">
										<path id="iteration0_00000034798399241531929940000005425197394577349794_" class="st0" d="M80,0h8l-4,6.93L80,0z"/>
									</g>
									<g transform="translate(64,0) scale(0.5,0.5)">
										<path id="iteration0_00000109014145092981968640000016029149646860759737_" class="st0" d="M88,0h8l-4,6.93L88,0z"/>
									</g>
									<g transform="translate(32,55.426) scale(0.5,0.5)">
										<path id="iteration0_00000065052744966150117750000016276325143276107959_" class="st0" d="M84,6.93h8l-4,6.93L84,6.93z"
											/>
									</g>
								</g>
							</g>
							<g transform="translate(32,55.426) scale(0.5,0.5)">
								<g id="iteration1_00000116202440333559478730000007197859193600296372_">
									<g transform="scale(0.5,0.5)">
										<path id="iteration0_00000146478530574643849780000016051247524082483084_" class="st0" d="M72,13.86h8l-4,6.93L72,13.86z
											"/>
									</g>
									<g transform="translate(64,0) scale(0.5,0.5)">
										<path id="iteration0_00000105399624099226371650000003870817873496994458_" class="st0" d="M80,13.86h8l-4,6.93L80,13.86z
											"/>
									</g>
									<g transform="translate(32,55.426) scale(0.5,0.5)">
										<path id="iteration0_00000138556123394604938660000016218185846923559867_" class="st0" d="M76,20.78h8l-4,6.93L76,20.78z
											"/>
									</g>
								</g>
							</g>
						</g>
					</g>
					<g transform="translate(64,0) scale(0.5,0.5)">
						<g id="iteration2_00000141431551777701285140000000619463538491656351_">
							<g transform="scale(0.5,0.5)">
								<g id="iteration1_00000054233882731380907810000016346167108130268862_">
									<g transform="scale(0.5,0.5)">
										<path id="iteration0_00000182503010777289621750000000257591115575111614_" class="st0" d="M96,0h8l-4,6.93L96,0z"/>
									</g>
									<g transform="translate(64,0) scale(0.5,0.5)">
										<path id="iteration0_00000134241876703309747960000017509933770722154139_" class="st0" d="M104,0h8l-4,6.93L104,0z"/>
									</g>
									<g transform="translate(32,55.426) scale(0.5,0.5)">
										<path id="iteration0_00000163758594605503354830000009271658330946626699_" class="st0" d="M100,6.93h8l-4,6.93L100,6.93z
											"/>
									</g>
								</g>
							</g>
							<g transform="translate(64,0) scale(0.5,0.5)">
								<g id="iteration1_00000117660095498681458330000001735481629726091658_">
									<g transform="scale(0.5,0.5)">
										<path id="iteration0_00000126298587415063964670000016933484209547831957_" class="st0" d="M112,0h8l-4,6.93L112,0z"/>
									</g>
									<g transform="translate(64,0) scale(0.5,0.5)">
										<path id="iteration0_00000165922263353911736690000015047773850747852444_" class="st0" d="M120,0h8l-4,6.93L120,0z"/>
									</g>
									<g transform="translate(32,55.426) scale(0.5,0.5)">
										<path id="iteration0_00000016768225998103604070000004753000570032948927_" class="st0" d="M116,6.93h8l-4,6.93L116,6.93z
											"/>
									</g>
								</g>
							</g>
							<g transform="translate(32,55.426) scale(0.5,0.5)">
								<g id="iteration1_00000080898046321276120460000000788350687086241175_">
									<g transform="scale(0.5,0.5)">
										<path id="iteration0_00000093143521174464738740000006498821340585820315_" class="st0" d="M104,13.86h8l-4,6.93
											L104,13.86z"/>
									</g>
									<g transform="translate(64,0) scale(0.5,0.5)">
										<path id="iteration0_00000074421884284766429450000010182062549528869306_" class="st0" d="M112,13.86h8l-4,6.93
											L112,13.86z"/>
									</g>
									<g transform="translate(32,55.426) scale(0.5,0.5)">
										<path id="iteration0_00000015339415891042822800000016233539476739500204_" class="st0" d="M108,20.78h8l-4,6.93
											L108,20.78z"/>
									</g>
								</g>
							</g>
						</g>
					</g>
					<g transform="translate(32,55.426) scale(0.5,0.5)">
						<g id="iteration2_00000019656623269061295960000005727107676117059993_">
							<g transform="scale(0.5,0.5)">
								<g id="iteration1_00000165196199350267100410000009725315213773795245_">
									<g transform="scale(0.5,0.5)">
										<path id="iteration0_00000096059496825357532210000009200824135453427339_" class="st0" d="M80,27.71h8l-4,6.93L80,27.71z
											"/>
									</g>
									<g transform="translate(64,0) scale(0.5,0.5)">
										<path id="iteration0_00000047041292402209227030000001688461711891404174_" class="st0" d="M88,27.71h8l-4,6.93L88,27.71z
											"/>
									</g>
									<g transform="translate(32,55.426) scale(0.5,0.5)">
										<path id="iteration0_00000140728805052332272360000007040656121380190861_" class="st0" d="M84,34.64h8l-4,6.93L84,34.64z
											"/>
									</g>
								</g>
							</g>
							<g transform="translate(64,0) scale(0.5,0.5)">
								<g id="iteration1_00000175302502705898751990000007973853908048947612_">
									<g transform="scale(0.5,0.5)">
										<path id="iteration0_00000031179868511183041780000006772800793415633040_" class="st0" d="M96,27.71h8l-4,6.93L96,27.71z
											"/>
									</g>
									<g transform="translate(64,0) scale(0.5,0.5)">
										<path id="iteration0_00000072972400659853439960000014520613480924866493_" class="st0" d="M104,27.71h8l-4,6.93
											L104,27.71z"/>
									</g>
									<g transform="translate(32,55.426) scale(0.5,0.5)">
										<path id="iteration0_00000119088490539234317140000003152073841669685947_" class="st0" d="M100,34.64h8l-4,6.93
											L100,34.64z"/>
									</g>
								</g>
							</g>
							<g transform="translate(32,55.426) scale(0.5,0.5)">
								<g id="iteration1_00000119081724524537462350000005190616798548911012_">
									<g transform="scale(0.5,0.5)">
										<path id="iteration0_00000070110167327764512900000010000351916407319976_" class="st0" d="M88,41.57h8l-4,6.93L88,41.57z
											"/>
									</g>
									<g transform="translate(64,0) scale(0.5,0.5)">
										<path id="iteration0_00000087374160653908987080000009039871909528380301_" class="st0" d="M96,41.57h8l-4,6.93L96,41.57z
											"/>
									</g>
									<g transform="translate(32,55.426) scale(0.5,0.5)">
										<path id="iteration0_00000018928284284266493390000013128422141956781468_" class="st0" d="M92,48.5h8l-4,6.93L92,48.5z"
											/>
									</g>
								</g>
							</g>
						</g>
					</g>
				</g>
			</g>
			<g transform="translate(32,55.426) scale(0.5,0.5)">
				<g id="iteration3_00000007387230781466668990000011201063922062061205_">
					<g transform="scale(0.5,0.5)">
						<g id="iteration2_00000131330123882394843630000013803558718179290002_">
							<g transform="scale(0.5,0.5)">
								<g id="iteration1_00000021093251533209932540000008721079532195026592_">
									<g transform="scale(0.5,0.5)">
										<path id="iteration0_00000110462889710442945890000009411075105546502557_" class="st0" d="M32,55.43h8l-4,6.93L32,55.43z
											"/>
									</g>
									<g transform="translate(64,0) scale(0.5,0.5)">
										<path id="iteration0_00000131369102818962580520000012694789003601312139_" class="st0" d="M40,55.43h8l-4,6.93L40,55.43z
											"/>
									</g>
									<g transform="translate(32,55.426) scale(0.5,0.5)">
										<path id="iteration0_00000067232813295149514930000013667622872568586404_" class="st0" d="M36,62.35h8l-4,6.93L36,62.35z
											"/>
									</g>
								</g>
							</g>
							<g transform="translate(64,0) scale(0.5,0.5)">
								<g id="iteration1_00000064317512309518693340000013145328707328207774_">
									<g transform="scale(0.5,0.5)">
										<path id="iteration0_00000142171168162776168430000015887546287076317863_" class="st0" d="M48,55.43h8l-4,6.93L48,55.43z
											"/>
									</g>
									<g transform="translate(64,0) scale(0.5,0.5)">
										<path id="iteration0_00000140695072613275740140000007749255571951469450_" class="st0" d="M56,55.43h8l-4,6.93L56,55.43z
											"/>
									</g>
									<g transform="translate(32,55.426) scale(0.5,0.5)">
										<path id="iteration0_00000052087736824098952220000016325000537569290119_" class="st0" d="M52,62.35h8l-4,6.93L52,62.35z
											"/>
									</g>
								</g>
							</g>
							<g transform="translate(32,55.426) scale(0.5,0.5)">
								<g id="iteration1_00000117652003009484983470000005293548100675368889_">
									<g transform="scale(0.5,0.5)">
										<path id="iteration0_00000021106155909798611860000010688333005741268902_" class="st0" d="M40,69.28h8l-4,6.93L40,69.28z
											"/>
									</g>
									<g transform="translate(64,0) scale(0.5,0.5)">
										<path id="iteration0_00000163774459875283028340000008440371701814846346_" class="st0" d="M48,69.28h8l-4,6.93L48,69.28z
											"/>
									</g>
									<g transform="translate(32,55.426) scale(0.5,0.5)">
										<path id="iteration0_00000168119372520413720320000014824275046471298963_" class="st0" d="M44,76.21h8l-4,6.93L44,76.21z
											"/>
									</g>
								</g>
							</g>
						</g>
					</g>
					<g transform="translate(64,0) scale(0.5,0.5)">
						<g id="iteration2_00000043454748932411751370000006371778297260855198_">
							<g transform="scale(0.5,0.5)">
								<g id="iteration1_00000152969644054880043190000015323131500909996709_">
									<g transform="scale(0.5,0.5)">
										<path id="iteration0_00000118388092920134915640000012722866659350891699_" class="st0" d="M64,55.43h8l-4,6.93L64,55.43z
											"/>
									</g>
									<g transform="translate(64,0) scale(0.5,0.5)">
										<path id="iteration0_00000132086082246786071960000003889938021357878912_" class="st0" d="M72,55.43h8l-4,6.93L72,55.43z
											"/>
									</g>
									<g transform="translate(32,55.426) scale(0.5,0.5)">
										<path id="iteration0_00000101802797407787010580000000282375904027418496_" class="st0" d="M68,62.35h8l-4,6.93L68,62.35z
											"/>
									</g>
								</g>
							</g>
							<g transform="translate(64,0) scale(0.5,0.5)">
								<g id="iteration1_00000000187538017321923240000000611946773580424604_">
									<g transform="scale(0.5,0.5)">
										<path id="iteration0_00000140004607265231097100000013353772390910635411_" class="st0" d="M80,55.43h8l-4,6.93L80,55.43z
											"/>
									</g>
									<g transform="translate(64,0) scale(0.5,0.5)">
										<path id="iteration0_00000070103344546603952930000010039487876192806533_" class="st0" d="M88,55.43h8l-4,6.93L88,55.43z
											"/>
									</g>
									<g transform="translate(32,55.426) scale(0.5,0.5)">
										<path id="iteration0_00000107575464554165552800000000998976615115999129_" class="st0" d="M84,62.35h8l-4,6.93L84,62.35z
											"/>
									</g>
								</g>
							</g>
							<g transform="translate(32,55.426) scale(0.5,0.5)">
								<g id="iteration1_00000003822466906083482530000000741956442765419673_">
									<g transform="scale(0.5,0.5)">
										<path id="iteration0_00000160879204793237916280000001447399338312064942_" class="st0" d="M72,69.28h8l-4,6.93L72,69.28z
											"/>
									</g>
									<g transform="translate(64,0) scale(0.5,0.5)">
										<path id="iteration0_00000021832275312018704410000015178983579434093219_" class="st0" d="M80,69.28h8l-4,6.93L80,69.28z
											"/>
									</g>
									<g transform="translate(32,55.426) scale(0.5,0.5)">
										<path id="iteration0_00000181773621144932410970000006511710010550645129_" class="st0" d="M76,76.21h8l-4,6.93L76,76.21z
											"/>
									</g>
								</g>
							</g>
						</g>
					</g>
					<g transform="translate(32,55.426) scale(0.5,0.5)">
						<g id="iteration2_00000088844857291992142790000000376313002160258729_">
							<g transform="scale(0.5,0.5)">
								<g id="iteration1_00000054239066352523955810000000475008571305387140_">
									<g transform="scale(0.5,0.5)">
										<path id="iteration0_00000098909549432214517580000003242572453568969897_" class="st0" d="M48,83.14h8l-4,6.93L48,83.14z
											"/>
									</g>
									<g transform="translate(64,0) scale(0.5,0.5)">
										<path id="iteration0_00000114763636501966990530000011048106853215513534_" class="st0" d="M56,83.14h8l-4,6.93L56,83.14z
											"/>
									</g>
									<g transform="translate(32,55.426) scale(0.5,0.5)">
										<path id="iteration0_00000040576376819051046820000014802040007137778617_" class="st0" d="M52,90.07h8L56,97L52,90.07z"
											/>
									</g>
								</g>
							</g>
							<g transform="translate(64,0) scale(0.5,0.5)">
								<g id="iteration1_00000145033665904942200390000015804369384221207179_">
									<g transform="scale(0.5,0.5)">
										<path id="iteration0_00000160876217903662051690000016240351400834157987_" class="st0" d="M64,83.14h8l-4,6.93L64,83.14z
											"/>
									</g>
									<g transform="translate(64,0) scale(0.5,0.5)">
										<path id="iteration0_00000106128735158707531340000003356200517057944754_" class="st0" d="M72,83.14h8l-4,6.93L72,83.14z
											"/>
									</g>
									<g transform="translate(32,55.426) scale(0.5,0.5)">
										<path id="iteration0_00000132079090598965466820000011717221950849268867_" class="st0" d="M68,90.07h8L72,97L68,90.07z"
											/>
									</g>
								</g>
							</g>
							<g transform="translate(32,55.426) scale(0.5,0.5)">
								<g id="iteration1_00000047749181650924285880000013898153652969029799_">
									<g transform="scale(0.5,0.5)">
										<path id="iteration0_00000121263268870341073040000007810997378537661837_" class="st0" d="M56,97h8l-4,6.93L56,97z"/>
									</g>
									<g transform="translate(64,0) scale(0.5,0.5)">
										<path id="iteration0_00000178205683596971013600000014882985880684901820_" class="st0" d="M64,97h8l-4,6.93L64,97z"/>
									</g>
									<g transform="translate(32,55.426) scale(0.5,0.5)">
										<path id="iteration0_00000167389860986055938790000009109267800582634678_" class="st0" d="M60,103.92h8l-4,6.93
											L60,103.92z"/>
									</g>
								</g>
							</g>
						</g>
					</g>
				</g>
			</g>
		</g>
	</g>
</g>
</svg>
