<?xml version="1.0" encoding="utf-8"?>
<!-- Generator: Adobe Illustrator 27.2.0, SVG Export Plug-In . SVG Version: 6.00 Build 0)  -->
<svg version="1.1" id="Capa_1" xmlns="http://www.w3.org/2000/svg" xmlns:xlink="http://www.w3.org/1999/xlink" x="0px" y="0px"
	 viewBox="0 0 85.02 86.34" style="enable-background:new 0 0 85.02 86.34;" xml:space="preserve">
<style type="text/css">
	.st0{fill:#F7F7F7;stroke:#000000;stroke-miterlimit:10;}
	.st1{fill:#D1D1D1;stroke:#000000;stroke-miterlimit:10;}
	.st2{fill:#FFFFFF;stroke:#000000;stroke-miterlimit:10;}
	.st3{fill:none;}
	.st4{font-family:'MyriadPro-Regular';}
	.st5{font-size:36px;}
</style>
<path class="st0" d="M59.57,55.78c-17.61,1.99-35.22,3.98-52.84,5.97C6.39,43.38,6.04,25.01,5.7,6.64
	c18.12-1.02,36.24-2.04,54.36-3.05C59.89,20.99,59.73,38.38,59.57,55.78z"/>
<path class="st0" d="M61.02,4.14c5.89,5.22,11.77,10.45,17.66,15.67c0.18,18.87,0.35,37.74,0.53,56.61
	c-6.55-6.88-13.1-13.76-19.65-20.63C60.05,38.57,60.54,21.35,61.02,4.14z"/>
<path class="st0" d="M25.05,83.26c17.8-20.83,35.61-41.66,53.41-62.5c0.27,18.87,0.55,37.73,0.82,56.6
	C61.2,79.33,43.12,81.29,25.05,83.26z"/>
<path class="st1" d="M5.81,10.36c5.72,23.92,11.43,47.83,17.15,71.75C17.2,75.6,11.45,69.08,5.7,62.57
	C5.73,45.16,5.77,27.76,5.81,10.36z"/>
<path class="st2" d="M5.94,6.88c24.04,4.37,48.07,8.74,72.11,13.11C60.08,40.92,42.11,61.86,24.14,82.79
	C18.07,57.49,12.01,32.18,5.94,6.88z"/>
<path class="st2" d="M25.48,90.97"/>
<rect x="26.77" y="23.45" class="st3" width="30.84" height="28.08"/>
<text transform="matrix(1 0 0 1 26.7711 49.0096)" class="st4 st5">7</text>
</svg>
