<?xml version="1.0" encoding="utf-8"?>
<!-- Generator: Adobe Illustrator 27.2.0, SVG Export Plug-In . SVG Version: 6.00 Build 0)  -->
<svg version="1.1"
	 id="svg2" xmlns:cc="http://web.resource.org/cc/" xmlns:sodipodi="http://sodipodi.sourceforge.net/DTD/sodipodi-0.dtd" xmlns:svg="http://www.w3.org/2000/svg" xmlns:dc="http://purl.org/dc/elements/1.1/" xmlns:rdf="http://www.w3.org/1999/02/22-rdf-syntax-ns#" xmlns:inkscape="http://www.inkscape.org/namespaces/inkscape" inkscape:version="0.45" sodipodi:modified="true" sodipodi:version="0.32"
	 xmlns="http://www.w3.org/2000/svg" xmlns:xlink="http://www.w3.org/1999/xlink" x="0px" y="0px" viewBox="0 0 291.13 265.19"
	 style="enable-background:new 0 0 291.13 265.19;" xml:space="preserve">
<style type="text/css">
	.st0{fill-rule:evenodd;clip-rule:evenodd;fill:none;stroke:#1D1D1B;stroke-width:0.8715;stroke-miterlimit:3.4861;}
	.st1{fill-rule:evenodd;clip-rule:evenodd;fill:#1D1D1B;stroke:#FFFFFF;stroke-width:0.8715;stroke-miterlimit:3.4861;}
	.st2{fill-rule:evenodd;clip-rule:evenodd;stroke:#1D1D1B;stroke-width:0.8715;stroke-miterlimit:3.4861;}
	.st3{fill-rule:evenodd;clip-rule:evenodd;fill:#1D1D1B;stroke:#FFFFFF;stroke-width:1.2123;stroke-miterlimit:3.4861;}
	.st4{fill-rule:evenodd;clip-rule:evenodd;fill:none;}
	.st5{font-family:'MyriadPro-Regular';}
	.st6{font-size:72px;}
</style>
<sodipodi:namedview  bordercolor="#666666" borderopacity="1.0" gridtolerance="10000" guidetolerance="10" height="540px" id="base" inkscape:current-layer="layer1" inkscape:cx="496.66923" inkscape:cy="284.71754" inkscape:document-units="px" inkscape:pageopacity="0.0" inkscape:pageshadow="2" inkscape:window-height="948" inkscape:window-width="1280" inkscape:window-x="0" inkscape:window-y="24" inkscape:zoom="0.7" objecttolerance="10" pagecolor="#ffffff" width="570px">
	</sodipodi:namedview>
<g id="layer1" transform="translate(-73.767999,-467.76506)" inkscape:groupmode="layer" inkscape:label="Layer 1">
	<g id="g2277" transform="matrix(0.8715162,0,0,0.8715162,-707.5571,84.547171)">
		<path id="path2255" class="st0" d="M1107.71,504.04l85.46-47.52l-96.62,262.45L1107.71,504.04z"/>
		<path id="path2257" sodipodi:nodetypes="cccc" class="st0" d="M915.57,491.13l190.22,14.19l-10.36,213.82L915.57,491.13z"/>
		<path id="path2259" class="st0" d="M917.96,490.14l272.65-34.44l-84.19,48.15L917.96,490.14z"/>
		<path id="path2271" sodipodi:nodetypes="ccccc" class="st1" d="M914.72,489.4l278.13-35.11l-0.64,2.71l-276.48,34.44L914.72,489.4
			z"/>
		<path id="path2275" sodipodi:nodetypes="csscc" class="st1" d="M1194.7,456.36l-97.9,262.83c-0.62,1.67-3.75,1.09-2.82-1.41
			l97.58-262.9L1194.7,456.36z"/>
		<path id="path2267" sodipodi:nodetypes="ccccssc" class="st1" d="M1110.27,504.75l-1.24,1.01l-12.4,212.41l-2.63-0.14
			c0,0,7.96-158.8,10.74-212.72c0.07-1.35-0.34-3.47,2.24-3.41C1110.42,501.98,1109.46,503.07,1110.27,504.75z"/>
		<path id="path2273" sodipodi:nodetypes="csscc" class="st2" d="M912.58,491.63l181.31,228.2c1.15,1.44,4.08,0.13,2.37-2.03
			L915.3,489.72L912.58,491.63z"/>
		<path id="path2269" sodipodi:nodetypes="cccsc" class="st3" d="M1104.29,505.36c-0.25-1.97,0.27-2.93,0.96-3.33l-189.73-12.57
			c-3.58-0.12-4.68,2.59-0.27,3.12C919.39,493.07,1104.29,505.36,1104.29,505.36z"/>
		<path id="path2265" sodipodi:nodetypes="cccsc" class="st1" d="M1107.39,501.65c2.06,0.43,2.11,2.18,2.07,3.87l84.65-48.37
			c1.48-0.99,0.45-3.73-1.58-2.85C1190.63,455.11,1107.39,501.65,1107.39,501.65z"/>
		<rect x="1028.09" y="529.96" class="st4" width="51.39" height="53.82"/>
		<text transform="matrix(1.1474 0 0 1.1474 1024.3011 584.6494)" class="st5 st6">4</text>
	</g>
</g>
</svg>
